<svg id="OBJECTS" xmlns="http://www.w3.org/2000/svg" viewBox="0 0 432.69 364.53"><defs><style>.cls-1{fill:#f28c30;}.cls-2{fill:#fff100;}.cls-10,.cls-11,.cls-12,.cls-13,.cls-2,.cls-3,.cls-4,.cls-5,.cls-6,.cls-7,.cls-8,.cls-9{fill-rule:evenodd;}.cls-3{fill:#682c84;}.cls-4{fill:#ed3087;}.cls-5{fill:#5a5b27;}.cls-6{fill:#ee529c;}.cls-14,.cls-7{fill:#fff;}.cls-8{fill:#00b2d8;}.cls-9{fill:#a5cd39;}.cls-10{fill:#6f4d9e;}.cls-11{fill:#684198;}.cls-12{fill:#dfc5bd;}.cls-13{fill:#91b73e;}.cls-14{font-size:37.92px;font-family:SegoeScript, Segoe Script;}</style></defs><circle class="cls-1" cx="250.2" cy="249.83" r="150.6" transform="translate(-43.26 419.2) rotate(-88.1)"/><path class="cls-2" d="M259.49,85.34,250.2,249.83,198.64,93.31a161.21,161.21,0,0,1,18-4.8L250.2,249.83,159.9,112A165.48,165.48,0,0,1,176,102.7L250.2,249.83,127.32,140.08A166.11,166.11,0,0,1,140.46,127L250.2,249.83,103.07,175.61a163,163,0,0,1,9.31-16.07L250.2,249.83,88.87,216.22a165.69,165.69,0,0,1,4.8-17.95L250.2,249.83,85.7,259.12c-.17-3.08-.26-6.17-.26-9.29s.09-6.21.26-9.28l164.5,9.28L93.67,301.39a165.07,165.07,0,0,1-4.8-17.95L250.2,249.83l-137.82,90.3a164.3,164.3,0,0,1-9.31-16.08L250.2,249.83,140.46,372.71a164.44,164.44,0,0,1-13.14-13.13L250.2,249.83,176,397a165.39,165.39,0,0,1-16.08-9.3l90.3-137.83L216.59,411.16a165.07,165.07,0,0,1-18-4.8L250.2,249.83l9.29,164.5c-3.08.17-6.17.27-9.29.27s-6.21-.1-9.29-.27l9.29-164.5,51.56,156.53a165.07,165.07,0,0,1-17.95,4.8L250.2,249.83l90.3,137.83a164.21,164.21,0,0,1-16.08,9.3L250.2,249.83,373.08,359.58A166,166,0,0,1,360,372.71L250.2,249.83l147.13,74.22a164.21,164.21,0,0,1-9.3,16.08L250.2,249.83l161.33,33.61a164.47,164.47,0,0,1-4.8,17.95L250.2,249.83l164.5-9.28c.17,3.07.26,6.17.26,9.28s-.09,6.21-.26,9.29l-164.5-9.29,156.53-51.56a165.69,165.69,0,0,1,4.8,17.95L250.2,249.83,388,159.54a162.9,162.9,0,0,1,9.3,16.07L250.2,249.83,360,127a166,166,0,0,1,13.13,13.13L250.2,249.83,324.42,102.7A166.35,166.35,0,0,1,340.5,112L250.2,249.83,283.81,88.51a160.63,160.63,0,0,1,17.95,4.8L250.2,249.83,240.91,85.34c3.08-.18,6.17-.27,9.29-.27S256.41,85.16,259.49,85.34Z" transform="translate(-35.47 -72.41)"/><path class="cls-3" d="M343.26,325.46a48.59,48.59,0,0,0-.87,5.33,39.54,39.54,0,0,0-.12,7.31c.93,11.48,11.25,13,29,15.51,7.19,1,15.66,2.25,25.2,4.4,31.64,7.12,41,19.6,41,19.64a1.59,1.59,0,0,0,.8.55,1.57,1.57,0,0,0,1.94-1.07c4.07-14.06-3.67-43.69-4.92-48.32,5.75-10.07,30-13.54,31.46-13.74a1.51,1.51,0,0,0,.87-.36,1.58,1.58,0,0,0,.19-2.21c-7.21-8.61-16.59-15.52-26.36-21A175.93,175.93,0,0,0,404,276.4a145.16,145.16,0,0,0-4.42-19.55h0a1.57,1.57,0,0,0-.91-1c-49.93-20.17-100.78,2.64-143.75,21.91-19.4,8.71-37.19,16.68-52.37,19.54a76.57,76.57,0,0,1-47.76-5.94c2.14-4,7.59-15.5,6.6-27.71-.92-11.48-11.25-13-29-15.51-7.19-1-15.66-2.25-25.2-4.4-31.64-7.11-41-19.6-41-19.64a1.51,1.51,0,0,0-.8-.54,1.57,1.57,0,0,0-1.94,1.07c-4,13.89-.38,35.7.29,39.37-5.68,10.58-25.95,22-27.37,22.83a1.52,1.52,0,0,0-.33.21,1.57,1.57,0,0,0-.19,2.21c22.72,27.16,67.09,37.32,76.91,39.29l-1.14,2.59c-2.79,6.28-5.2,11.73-6.38,16a14.73,14.73,0,0,0,1.64,12.33,25.5,25.5,0,0,0,8.85,7.94c49.42,29.13,105,5.32,157.22-17.08C297.49,339.8,321.3,329.6,343.26,325.46Z" transform="translate(-35.47 -72.41)"/><path class="cls-4" d="M155.88,258.25c0,.07,0,.15.07.23,3.78,9.43-23.88,10.75-29.61,10.92a1.57,1.57,0,0,0-2.52,1.64c5.18,17.47-2.63,38.13-9.78,54.57-7.8-1.51-51.55-10.93-74.57-36.94,5.39-3.16,22.32-13.69,27.3-23.7a1.51,1.51,0,0,0,.12-1.08c-.28-1.5-4-21.63-1.11-35.64,4.35,4.12,16.13,13,40.73,18.57,9.71,2.19,18.22,3.41,25.45,4.45C143.84,253,152.07,254.16,155.88,258.25Z" transform="translate(-35.47 -72.41)"/><path class="cls-5" d="M128.27,271.67c7.33-.36,26.19-2,29.8-9a12.18,12.18,0,0,1,.16,1.25c.94,11.54-4.33,22.47-6.27,26.07A84.53,84.53,0,0,1,128.27,271.67Z" transform="translate(-35.47 -72.41)"/><path class="cls-4" d="M347.77,343.54c-.82-17,42.14-11.27,49.84-10.12l.5.33h0a1.54,1.54,0,0,0,.31.17,1.57,1.57,0,0,0,2-.91c6.81-17.72,6.16-38,4-53.19a170.29,170.29,0,0,1,35.42,14.44c8.66,4.85,17,10.84,23.65,18.16-7.28,1.31-26.44,5.63-31.36,15.51a1.62,1.62,0,0,0-.09,1.2c.44,1.55,8.11,29.34,5.7,44.35-4.4-4.14-16.18-13-40.68-18.52-9.7-2.18-18.22-3.41-25.44-4.44C359.81,348.8,351.58,347.62,347.77,343.54Z" transform="translate(-35.47 -72.41)"/><path class="cls-5" d="M392.39,330.37c-13.5-1.52-42.8-3.26-46.58,9.71a11.34,11.34,0,0,1-.41-2.23,36.86,36.86,0,0,1,.11-6.74,45.07,45.07,0,0,1,1.12-6.24C363.13,322.21,378.55,323.21,392.39,330.37Z" transform="translate(-35.47 -72.41)"/><path class="cls-6" d="M398.18,330.07c-35-21.84-79.39-2.81-126.46,17.36C220.17,369.53,165.36,393,117.3,364.7a22.49,22.49,0,0,1-7.78-6.91,11.77,11.77,0,0,1-1.27-9.82c1.11-4,3.49-9.37,6.23-15.56.62-1.41,1.27-2.85,1.91-4.34l.06-.12c6.69-15.29,14.22-34.41,11.68-51.83,9.58,9.85,35.82,31.65,75,24.28,15.55-2.92,33.49-11,53.07-19.75,42.22-18.94,92.13-41.32,140.61-22.14a151.49,151.49,0,0,1,4.24,19.2,1.86,1.86,0,0,0,.05.34C403.3,292.54,404.36,312.49,398.18,330.07Z" transform="translate(-35.47 -72.41)"/><path class="cls-7" d="M240.61,287.54h0Zm10.17-4.48,5.38-2.41c42.22-18.94,92.13-41.32,140.61-22.14.29.94.82,2.81,1.47,5.4C398.24,263.91,353.39,239.24,250.78,283.06Z" transform="translate(-35.47 -72.41)"/><path class="cls-4" d="M398.18,330.07c-35-21.84-79.39-2.81-126.46,17.36C220.17,369.53,165.36,393,117.3,364.7a22.49,22.49,0,0,1-7.78-6.91,11.77,11.77,0,0,1-1.27-9.82c1.11-4,3.49-9.37,6.23-15.56.62-1.41,1.27-2.85,1.91-4.34l.06-.12c6.69-15.29,14.22-34.41,11.68-51.83A88.76,88.76,0,0,0,155.22,295c-11.39,2.49-24.39,9.84-27,30.06-4.91,37.4,19.92,45.13,79.64,36.34,58.63-8.63,121.26-71.55,193.42-43.05A77,77,0,0,1,398.18,330.07Z" transform="translate(-35.47 -72.41)"/><path class="cls-3" d="M398.18,330.07c-35-21.84-79.39-2.81-126.46,17.36C220.17,369.53,165.36,393,117.3,364.7a22.49,22.49,0,0,1-7.78-6.91,11.77,11.77,0,0,1-1.27-9.82c1.11-4,3.49-9.37,6.23-15.56.62-1.41,1.27-2.85,1.91-4.34l.06-.12c6.69-15.29,14.22-34.41,11.68-51.83,9.58,9.85,35.82,31.65,75,24.28,15.55-2.92,33.49-11,53.07-19.75,42.22-18.94,92.13-41.32,140.61-22.14a151.49,151.49,0,0,1,4.24,19.2,1.86,1.86,0,0,0,.05.34c2.24,14.49,3.3,34.44-2.88,52Zm-5.79.3c-13.84-7.16-29.26-8.16-45.76-5.5a45.07,45.07,0,0,0-1.12,6.24,36.86,36.86,0,0,0-.11,6.74,11.34,11.34,0,0,0,.41,2.23c3.78-13,33.08-11.23,46.58-9.71Zm-44.62,13.17c3.81,4.08,12,5.26,23.91,7,7.22,1,15.74,2.26,25.44,4.44,24.5,5.51,36.28,14.38,40.68,18.52,2.41-15-5.26-42.8-5.7-44.35a1.62,1.62,0,0,1,.09-1.2c4.92-9.88,24.08-14.2,31.36-15.51-6.66-7.32-15-13.31-23.65-18.16a170.29,170.29,0,0,0-35.42-14.44c2.12,15.18,2.77,35.47-4,53.19a1.57,1.57,0,0,1-2,.91,1.54,1.54,0,0,1-.31-.17h0l-.5-.33c-7.7-1.15-50.66-6.85-49.84,10.12Zm-4.51-18.08a48.59,48.59,0,0,0-.87,5.33,39.54,39.54,0,0,0-.12,7.31c.93,11.48,11.25,13,29,15.51,7.19,1,15.66,2.25,25.2,4.4,31.64,7.12,41,19.6,41,19.64a1.59,1.59,0,0,0,.8.55,1.57,1.57,0,0,0,1.94-1.07c4.07-14.06-3.67-43.69-4.92-48.32,5.75-10.07,30-13.54,31.46-13.74a1.51,1.51,0,0,0,.87-.36,1.58,1.58,0,0,0,.19-2.21c-7.21-8.61-16.59-15.52-26.36-21A175.93,175.93,0,0,0,404,276.4a145.16,145.16,0,0,0-4.42-19.55h0a1.57,1.57,0,0,0-.91-1c-49.93-20.17-100.78,2.64-143.75,21.91-19.4,8.71-37.19,16.68-52.37,19.54a76.57,76.57,0,0,1-47.76-5.94c2.14-4,7.59-15.5,6.6-27.71-.92-11.48-11.25-13-29-15.51-7.19-1-15.66-2.25-25.2-4.4-31.64-7.11-41-19.6-41-19.64a1.51,1.51,0,0,0-.8-.54,1.57,1.57,0,0,0-1.94,1.07c-4,13.89-.38,35.7.29,39.37-5.68,10.58-25.95,22-27.37,22.83a1.52,1.52,0,0,0-.33.21,1.57,1.57,0,0,0-.19,2.21c22.72,27.16,67.09,37.32,76.91,39.29l-1.14,2.59c-2.79,6.28-5.2,11.73-6.38,16a14.73,14.73,0,0,0,1.64,12.33,25.5,25.5,0,0,0,8.85,7.94c49.42,29.13,105,5.32,157.22-17.08,24.55-10.52,48.36-20.72,70.32-24.86Zm-215-53.79A84.53,84.53,0,0,0,152,290c1.94-3.6,7.21-14.53,6.27-26.07a12.18,12.18,0,0,0-.16-1.25c-3.61,7-22.47,8.64-29.8,9Zm27.61-13.42c-3.81-4.09-12-5.27-23.92-7-7.23-1-15.74-2.26-25.45-4.45-24.6-5.53-36.38-14.45-40.73-18.57-2.86,14,.83,34.14,1.11,35.64a1.51,1.51,0,0,1-.12,1.08c-5,10-21.91,20.54-27.3,23.7,23,26,66.77,35.43,74.57,36.94,7.15-16.44,15-37.1,9.78-54.57a1.57,1.57,0,0,1,2.52-1.64c5.73-.17,33.39-1.49,29.61-10.92C155.92,258.4,155.9,258.32,155.88,258.25Z" transform="translate(-35.47 -72.41)"/><path class="cls-3" d="M176.34,372.74c-.8,0-.48.18-1.29-1.45C173.06,367.29,177.63,370.68,176.34,372.74Z" transform="translate(-35.47 -72.41)"/><path class="cls-3" d="M406.34,339.53c-.46.07-2.74-1.38-2.55-2.76.82-.23,1.36.5,1.83,1a4.25,4.25,0,0,1,.67.72C406.94,339.51,406.34,339.52,406.34,339.53Z" transform="translate(-35.47 -72.41)"/><path class="cls-3" d="M274.21,340.88c-.81,0-.67.2-1.61-1.06C270.54,337.06,274.63,338.35,274.21,340.88Z" transform="translate(-35.47 -72.41)"/><path class="cls-3" d="M56.29,295.44a4,4,0,0,1,1,1.44c.72,1.4-.65,2-1.61-.33C55.42,295.88,55.51,294.87,56.29,295.44Z" transform="translate(-35.47 -72.41)"/><path class="cls-3" d="M81.17,310.38c-1,0-.94-.26-1.3-1.05C78.3,305.93,81.62,307.62,81.17,310.38Z" transform="translate(-35.47 -72.41)"/><path class="cls-3" d="M436.43,317c.76-.18,1,.16,1.36.86.18.38.58,1.41.23,1.78C437.16,320.59,436.3,317.79,436.43,317Z" transform="translate(-35.47 -72.41)"/><path class="cls-3" d="M345.16,316.52c-.1-.74,0-.25.1-.65.28-1-.32-1.49.49-1.47C347.09,314.43,347.7,317.56,345.16,316.52Z" transform="translate(-35.47 -72.41)"/><path class="cls-3" d="M387.07,285.62c-2.42,0-2.63-1.41-1.26-1.41C388.13,284.22,388.43,285.62,387.07,285.62Z" transform="translate(-35.47 -72.41)"/><path class="cls-3" d="M287,272.35c.92,0,.73-.25,1.4.71.26.37.77,1.26.31,1.7C288,275.46,286.8,273.2,287,272.35Z" transform="translate(-35.47 -72.41)"/><path class="cls-3" d="M269.13,342.28c-.61-.21-.17.24-.57-.51-.49-.95-.84-1.45-.65-1.95.76-.32,1.86.62,1.74,1.73C269.59,342.13,269.49,342.09,269.13,342.28Z" transform="translate(-35.47 -72.41)"/><path class="cls-3" d="M179.76,371.85c-.85.2-1-.28-1.29-.87-1-1.93-.07-2,.91-.92A2,2,0,0,1,179.76,371.85Z" transform="translate(-35.47 -72.41)"/><path class="cls-3" d="M431.69,320.24c.14.14,1.85,2.36.51,2.37-.73,0-1.44-1.58-1.33-2.27Z" transform="translate(-35.47 -72.41)"/><path class="cls-3" d="M139.58,258c-.78.39-2.68.67-2.47-.8C138.16,256.94,139.6,256.71,139.58,258Z" transform="translate(-35.47 -72.41)"/><path class="cls-3" d="M338.16,259.85c-.92.09-.84-.08-1.26-.63-.24-.33-.95-1-.26-1.39S338.44,258.81,338.16,259.85Z" transform="translate(-35.47 -72.41)"/><path class="cls-3" d="M457,308.81v.64l-.87.18c-.42-.44-1.17-1-.69-1.73C456.14,307.11,456.67,308.49,457,308.81Z" transform="translate(-35.47 -72.41)"/><path class="cls-3" d="M154.23,277.31c-1,.25-1.32-.57-1.34-1.54.41-.16.69-.35,1.07,0A1.38,1.38,0,0,1,154.23,277.31Z" transform="translate(-35.47 -72.41)"/><path class="cls-3" d="M410.34,312.72c-.6-.18-1.66-1.09-.8-1.61s1.34.68,1.41,1.28Z" transform="translate(-35.47 -72.41)"/><path class="cls-3" d="M409.25,330.94c.41-.18.58-.36,1,0,.22.17.63.61.53,1C410.58,332.9,409.22,332.29,409.25,330.94Z" transform="translate(-35.47 -72.41)"/><path class="cls-3" d="M342.63,257.41c.46.11.75.12.94.71s-.14.72-.67.66C341.78,258.66,341.59,257.17,342.63,257.41Z" transform="translate(-35.47 -72.41)"/><path class="cls-3" d="M324.76,261.22c1.15-.35,1.84.73,1.42,1.24C325.54,263.22,324.62,262.08,324.76,261.22Z" transform="translate(-35.47 -72.41)"/><path class="cls-3" d="M133.13,259.33c1,.42,1.14,1.74.09,1.53S132.07,258.88,133.13,259.33Z" transform="translate(-35.47 -72.41)"/><path class="cls-3" d="M93.08,251.55c-.61.06-1.39.14-1.5-1.19l.62-.39A1.29,1.29,0,0,1,93.08,251.55Z" transform="translate(-35.47 -72.41)"/><path class="cls-3" d="M436.76,357.77a.86.86,0,0,1-1.08-1.28C436.15,356,437.07,356.85,436.76,357.77Z" transform="translate(-35.47 -72.41)"/><path class="cls-3" d="M416.81,356.9c-1,.72-1.92-.84-.6-1.24C416.77,355.89,417.07,356.07,416.81,356.9Z" transform="translate(-35.47 -72.41)"/><path class="cls-3" d="M317.1,264.48c-.9.48-1.35.13-1.08-.9C316.87,263.16,317.32,263.5,317.1,264.48Z" transform="translate(-35.47 -72.41)"/><path class="cls-3" d="M259.07,344.3a1.38,1.38,0,0,1-.31-1l.65-.34C260.31,343.4,260.41,344.31,259.07,344.3Z" transform="translate(-35.47 -72.41)"/><path class="cls-3" d="M428.35,327.16c.65-1.56,2.18,0,.69.67C428.48,327.62,428.57,327.71,428.35,327.16Z" transform="translate(-35.47 -72.41)"/><path class="cls-3" d="M349.08,315.32c-.84-.35-.75-.73-.19-1.31C350.17,314.16,349.92,315,349.08,315.32Z" transform="translate(-35.47 -72.41)"/><path class="cls-3" d="M329,261.72c-.27-.33-.19-.1-.32-.63.31-.45.31-.48,1-.55C330.08,261.31,330,261.61,329,261.72Z" transform="translate(-35.47 -72.41)"/><path class="cls-3" d="M255.32,346.45a.72.72,0,0,1,.86.11c.22.67-.35.84-1,.65C255.06,346.7,254.88,346.71,255.32,346.45Z" transform="translate(-35.47 -72.41)"/><path class="cls-3" d="M68.91,298.69c-1.15,0-3-4.1-3.87-5.57-2.7-4.76-5.67-11.19-8.2-15.74-.43-.76-1.52-2.45-1.32-3.39,1.12.14,3.26,4.5,3.82,5.58C61.11,283,68.62,296.78,68.91,298.69Z" transform="translate(-35.47 -72.41)"/><path class="cls-3" d="M384.58,351.72c-.76-.2-1.59-1.56-2.18-2.38l-6-7.87c-1.4-1.79-2.71-3.49-4.11-5.26-.9-1.15-3.59-4.27-3.68-5.65a2.11,2.11,0,0,1,1.5,1.06c2.4,3.07,4.71,5.63,7.2,8.94C378.51,342.16,384.9,350,384.58,351.72Z" transform="translate(-35.47 -72.41)"/><path class="cls-3" d="M380.12,350.91c-1-.18-1.78-1.46-2.33-2.16-3.39-4.3-8.74-11-11.65-15.41-.52-.78-1.58-1.89-1.41-3,1.07.09,3,3.4,4.17,4.78l7.75,10.28C377.37,346.35,380.09,349.64,380.12,350.91Z" transform="translate(-35.47 -72.41)"/><path class="cls-3" d="M149.63,290.37c-.69-.14-.95-1-1.7-2.27l-7.74-12.9c-.66-1.07-3-4.35-2.86-5.41,1.23.14,3,3.43,3.75,4.53C142.59,276.68,150.36,288.9,149.63,290.37Z" transform="translate(-35.47 -72.41)"/><path class="cls-3" d="M153.27,291.25c-.92-.42-2.27-4.26-2.86-5.45-1-2-1.84-3.8-2.87-5.63s-2-3.7-3.09-5.42c-.63-1-2.95-4.41-3-5.5C144,269.76,153.69,288,153.27,291.25Z" transform="translate(-35.47 -72.41)"/><path class="cls-3" d="M63.37,252.13c.91.05,1.16.88,2,2.19.59,1,1,1.74,1.63,2.7,1.3,2.08,10.1,15.41,9.63,15.85C75.83,273.6,64.83,257.08,63.37,252.13Z" transform="translate(-35.47 -72.41)"/><path class="cls-3" d="M64.87,228h.44a27.94,27.94,0,0,1,2.57,5.25c.73,1.92,1.33,3.81,2,5.8s2.16,6.84,3.09,8.7a10.55,10.55,0,0,1,1.18,2.79c-.73,0-.76-.2-1.15-.74-1.74-2.45-3.25-7-4.18-9.87-.66-2-1.3-4-2-6C66.38,232.5,64.89,229.19,64.87,228Z" transform="translate(-35.47 -72.41)"/><path class="cls-3" d="M74.59,265.44c-.88-.2-.91-.83-1.58-2.32-1.67-3.74-9.57-16.94-9.28-18.3.08,0-.25-.48.55,0a4.06,4.06,0,0,1,.46.59c.25.41.42.78.67,1.24C67.6,250.48,74.93,262.4,74.59,265.44Z" transform="translate(-35.47 -72.41)"/><path class="cls-3" d="M128.76,348.94c-.92-.37-5.2-8.49-6-10-.72-1.25-5.79-9.43-5.3-10.34,1.28.42,5.73,8.48,6.36,9.63C124.57,339.69,129.36,347.63,128.76,348.94Z" transform="translate(-35.47 -72.41)"/><path class="cls-3" d="M118.59,365c-.68-.21-.7-.44-1.06-1.11-.25-.45-.39-.75-.64-1.26-.44-.87-.79-1.66-1.23-2.58-1.27-2.66-7-15.23-6.61-16.75.74.28,1.14,1.49,1.58,2.35C112.38,349.17,118.54,363.07,118.59,365Z" transform="translate(-35.47 -72.41)"/><path class="cls-3" d="M375.62,350.58a54.11,54.11,0,0,1-3.62-4.72c-1.18-1.55-2.39-3-3.58-4.56-.64-.83-1.21-1.48-1.86-2.3-1.1-1.39-4.94-5.93-4.89-7.23.77-.09,1.71,1.27,2.13,1.83l5.59,6.9C370,341.3,376.61,349.07,375.62,350.58Z" transform="translate(-35.47 -72.41)"/><path class="cls-3" d="M386.51,349.49c-1.05,0-1.66-1.19-2.14-1.78-1.86-2.29-6.72-9.11-8.36-11.57-1-1.51-3.19-3.7-3.12-4.77,1.21.21,3.22,2.87,4,3.9,1.14,1.53,2.23,3.06,3.36,4.61s2.2,3.1,3.27,4.71C384.12,345.51,386.39,348.42,386.51,349.49Z" transform="translate(-35.47 -72.41)"/><path class="cls-3" d="M70.19,296.23c-.92-.25-2.58-3.83-3.08-4.83-.89-1.76-1.69-3.62-2.51-5.48s-5.1-9.87-5.27-10.73C61.58,275.24,70.59,295.37,70.19,296.23Z" transform="translate(-35.47 -72.41)"/><path class="cls-3" d="M126.31,353.63c-.75-.1-1.27-1.37-1.71-2.14l-3.95-7.84c-.91-2-4.7-9.31-4.72-11.14C117.86,333.36,126.39,352.68,126.31,353.63Z" transform="translate(-35.47 -72.41)"/><path class="cls-3" d="M80.43,254.31c-1.08,0-1.21-1.06-1.64-2l-5.73-13c-.5-1.15-2.16-4.29-1.81-5.25.91,0,.88.49,1.62,2,.45.9.76,1.59,1.17,2.48.79,1.74,1.53,3.43,2.31,5.14S80.61,253,80.43,254.31Z" transform="translate(-35.47 -72.41)"/><path class="cls-3" d="M130.51,346.19c-.55-.19-.52-.41-.75-1.07l-1.5-4.06c-.76-1.8-1.57-3.41-2.39-5.06s-4.92-8.7-4.94-9.9c.95.29,1.38,1.13,1.94,2a75.54,75.54,0,0,1,4.06,7.21C127.81,337,131.5,344.36,130.51,346.19Z" transform="translate(-35.47 -72.41)"/><path class="cls-3" d="M120.19,357.23c-.8.07-1.12-1.13-1.52-1.9l-3.46-6.93c-.79-1.58-4.42-8.35-4.3-9.78,1,.15,1.22,1,1.73,1.94l3.54,6.86c.48,1,4.31,8.28,4.11,9.52Z" transform="translate(-35.47 -72.41)"/><path class="cls-3" d="M85.26,254.64c-.87-.1-1.17-.92-1.68-1.74-1.27-2.1-2.44-4.63-3.54-6.86-.66-1.36-4.26-9-3.44-10.29.91.4,1.8,3.45,2.26,4.53l4.38,9.5C83.78,251,85.31,253.44,85.26,254.64Z" transform="translate(-35.47 -72.41)"/><path class="cls-3" d="M71.41,252.64c-.71.1-1-1.13-1.38-1.8-1.66-3.14-8.38-15.22-6.78-17.31.62.35,1.39,3.39,2,4.8,1.2,3,6.53,12.5,6.34,13.89C71.46,252.82,71.52,252.43,71.41,252.64Z" transform="translate(-35.47 -72.41)"/><path class="cls-3" d="M421.46,301c-1.41-.57-5-7-6-8.61l-4.6-6.33c-.41-.5-1.38-1.53-1.34-2.37C412.29,284.39,421.3,298.53,421.46,301Z" transform="translate(-35.47 -72.41)"/><path class="cls-3" d="M130.8,337.47c-.91.26-1.28-.78-1.76-1.53s-.84-1.36-1.25-2.05c-1.18-2-7-12.17-6.84-13.18.68-.18,1.21.9,1.64,1.57C124.16,324.71,130.83,336.36,130.8,337.47Z" transform="translate(-35.47 -72.41)"/><path class="cls-3" d="M130.34,332c-.94,0-1-.87-1.41-1.82l-4.72-10.88c-.34-.73-.63-1.42-1-2.16a5.34,5.34,0,0,1-.68-1.75l.09-.45a.42.42,0,0,1,.06-.15c.89,0,2,2.76,2.49,3.69C126.36,320.85,130.66,330.19,130.34,332Z" transform="translate(-35.47 -72.41)"/><path class="cls-3" d="M370.42,349.49c-.45-.18-.42-.33-.78-.91l-2.23-3c-2.09-2.61-8.7-9.73-8.3-12.23.71.15.64.22,1,.81a68.56,68.56,0,0,0,5.2,6.94C366,342,371.44,348,370.42,349.49Z" transform="translate(-35.47 -72.41)"/><path class="cls-3" d="M63.75,295.39c-.92-.07-1-.82-1.38-1.69s-.7-1.37-1-2.08c-1.26-2.72-5.95-11.32-5.94-12.91,1.14.15,1.79,2,2.72,3.65.79,1.39,1.39,2.68,2.11,4.13S64.11,293.8,63.75,295.39Z" transform="translate(-35.47 -72.41)"/><path class="cls-3" d="M125,289.87c-.82-.27-1.58-2.21-2.76-3.84a39.91,39.91,0,0,0-3.07-3.7l-3.1-3.49c-.86-1-2.73-2.91-2.63-4,.91,0,2.83,2.45,3.48,3.12s1.07,1,1.61,1.67C120.09,281.52,125.64,287.09,125,289.87Z" transform="translate(-35.47 -72.41)"/><path class="cls-3" d="M438.38,370.33c-1.22,0-4.63-3.72-5.55-4.82-.55-.66-1.12-1.11-1.68-1.78l-4.89-5.52c-.56-.65-1.18-1.1-1.31-2,1-.1,3.1,2.34,3.75,3.07l8.3,9C437.6,368.88,438.26,369.29,438.38,370.33Z" transform="translate(-35.47 -72.41)"/><path class="cls-3" d="M135.2,314.29c-1-.38-4.07-6.46-4.79-7.8-1-1.81-3.72-6.58-3.77-8.74.86-.17,1.15,1,1.47,1.68C129.71,302.66,135.54,312.43,135.2,314.29Z" transform="translate(-35.47 -72.41)"/><path class="cls-3" d="M144,287.39c-1.28-.2-4.5-6.07-5.3-7.42-.44-.74-4.7-7.82-4.17-8.34s2.27,2.66,2.72,3.38c.84,1.35,1.54,2.59,2.38,4S144.2,286.26,144,287.39Z" transform="translate(-35.47 -72.41)"/><path class="cls-3" d="M386.43,302.25c2.51-.52,10.43,4.32,13,6.5.38.33,3.19,2.89,2.58,3.49-.38.39-1.43-.91-1.73-1.21-2.33-2.39-6.81-4.88-9.88-6.42C389.13,304,386.6,303.12,386.43,302.25Z" transform="translate(-35.47 -72.41)"/><path class="cls-3" d="M70.19,286.88c-1-.1-2-2.51-2.57-3.46l-4.28-8c-.3-.55-2.3-4-1.3-4.17.61-.12,2.07,3,2.39,3.6l4.29,8C69.23,283.89,70.78,286,70.19,286.88Z" transform="translate(-35.47 -72.41)"/><path class="cls-3" d="M124.77,299.23c-1,0-2.49-2.37-3.21-3.14-1.13-1.19-1.94-2.29-3-3.42-.58-.62-5.62-6.21-5.41-7.15,0,0,.06-.64,1,.26,1.12,1.07,1.6,1.84,2.32,2.54C118.18,290,124.68,297.67,124.77,299.23Z" transform="translate(-35.47 -72.41)"/><path class="cls-3" d="M154.27,284.62c-1.64-.36-6.24-10.33-7.18-12-.31-.53-2.31-3.76-2-4.11,1-1,6.44,10,7.27,11.62C152.89,281.09,154.47,283.57,154.27,284.62Z" transform="translate(-35.47 -72.41)"/><path class="cls-3" d="M366.26,350.55c-.7-.23-.94-1-1.31-1.8-1.69-3.42-4.19-6.09-6.18-9.08-.51-.78-2.42-3.05-1.47-4.1a8.18,8.18,0,0,1,1.21,1.77l4,5.23C363.16,343.5,367.12,348.91,366.26,350.55Z" transform="translate(-35.47 -72.41)"/><path class="cls-3" d="M133.56,298.47c-2-.69-4.42-9.81-5.13-12-.32-1-1.47-3.59-1-4.39.92.37,1.52,2.36,2,3.59l2.76,8.34A18.32,18.32,0,0,1,133.56,298.47Z" transform="translate(-35.47 -72.41)"/><path class="cls-3" d="M113.57,326c-1.1-.16-2.77-2.27-3.42-3-1.16-1.35-1.89-2.28-2.88-3.53s-1.94-2.38-2.91-3.51c-.74-.86-2.6-2.44-2.81-3.63C103.8,312.65,113.29,324.33,113.57,326Z" transform="translate(-35.47 -72.41)"/><path class="cls-3" d="M72.78,275.43c-.89-.35-1.62-2.52-2.15-3.5-1.36-2.53-6.25-10.1-6.32-11.2,1,0,1.91,1.75,2.85,3C68.6,265.75,73.58,273.51,72.78,275.43Z" transform="translate(-35.47 -72.41)"/><path class="cls-3" d="M417.29,332.89c-1.23-.32-2.54-2.14-3.34-2.95-1.64-1.66-8.45-8.61-8.71-9.9,1.29.19,2.73,2,3.5,2.79.59.57,1.06.88,1.63,1.5s.88,1,1.5,1.62c1.16,1.11,1.91,2.11,3,3.29C415.47,330,417.16,331.8,417.29,332.89Z" transform="translate(-35.47 -72.41)"/><path class="cls-3" d="M126.21,287.08c-.78-.34-3.16-5-4.43-6.82-1.08-1.51-4.59-5.42-4.73-6.51,1.36.06,4.77,4.35,5.7,5.71C123.43,280.45,126.93,285.87,126.21,287.08Z" transform="translate(-35.47 -72.41)"/><path class="cls-3" d="M358.57,348.6c-.89,0-1.07-.59-1.46-1.2l-3.3-4.5c-.81-1.06-4.29-5.16-4.34-6.17.93-.17,1.28.51,1.7,1C353,339.85,358.89,346.36,358.57,348.6Z" transform="translate(-35.47 -72.41)"/><path class="cls-3" d="M405.45,292.61c.84.11,1.12.77,1.57,1.42l3.56,4.77c.44.56,5,5.93,4.42,6.51-.37.38-1.32-.8-1.52-1.08l-3.79-4.55C408.71,298.39,405.64,294.63,405.45,292.61Z" transform="translate(-35.47 -72.41)"/><path class="cls-3" d="M413.61,297.11c-1.22-.44-9.37-12-9.48-13.08,1,0,2.05,1.63,2.83,2.61s1.63,2.13,2.46,3.26S413.79,295.82,413.61,297.11Z" transform="translate(-35.47 -72.41)"/><path class="cls-3" d="M402.79,288.25c-1.16,0-5.41-3-6.72-3.73-1.12-.65-2.19-1.19-3.42-1.79-.94-.47-3.06-.87-3.44-1.82C391.62,279.86,402.78,286.6,402.79,288.25Z" transform="translate(-35.47 -72.41)"/><path class="cls-3" d="M134.54,291.79c-.42-.18-.29,0-.65-.58a6.49,6.49,0,0,1-.42-.79c-1-2.22-4.46-11.28-4.6-12.56,1.23.31,1.65,1.76,2.15,2.88C131.81,282.5,135.12,290.82,134.54,291.79Z" transform="translate(-35.47 -72.41)"/><path class="cls-3" d="M403.17,277.91c-.9,0-1.93-1.16-3-2a43.4,43.4,0,0,0-8.58-4.25c-.78-.3-1.34-.39-1.48-1.07C392,269.81,403,274.87,403.17,277.91Z" transform="translate(-35.47 -72.41)"/><path class="cls-3" d="M59.19,292.92c-.88.13-1.41-1.25-2.1-2.61s-4.85-8.73-4.43-9.95c.94.09,1.46,1.39,2.13,2.72l3.28,6.43C58.5,290.44,59.76,292.09,59.19,292.92Z" transform="translate(-35.47 -72.41)"/><path class="cls-3" d="M361.57,348.63c-.68-.22-.75-.75-1.13-1.44-1.75-3.24-7.22-8-7.22-10.74.94.11,1,.67,1.45,1.26C356.33,340,362.79,346.72,361.57,348.63Z" transform="translate(-35.47 -72.41)"/><path class="cls-3" d="M424.51,299c-1.2-.23-5.67-7.2-6.58-8.63-.54-.82-1.65-2.43-1.61-3.66.95.21,1.58,1.5,2.4,2.7C420,291.37,424.57,297.29,424.51,299Z" transform="translate(-35.47 -72.41)"/><path class="cls-3" d="M121.2,311.22c-.83-.16-.87-.57-1.24-1.22l-6.31-7.74c-.52-.48-.79-.69-.72-1.38,1.22-.19,3.09,2.17,3.92,3,.41.43.59.78,1,1.25C118.67,306.06,121.43,309.37,121.2,311.22Z" transform="translate(-35.47 -72.41)"/><path class="cls-3" d="M400.17,326.92c-.82.18-1.05-.37-1.51-.77a29.92,29.92,0,0,0-7.57-4.56c-1.31-.58-2.77-1-3-1.94,1.68-.26,5.64,1.79,7.07,2.56S400,325.26,400.17,326.92Z" transform="translate(-35.47 -72.41)"/><path class="cls-3" d="M434,349.53c-.9-.14-3.41-2.8-4.2-3.65l-3.55-4.08c-.55-.67-1.81-2.1-1.82-3.16.82.09,1.08.53,1.5,1C427.57,341.73,433.83,347.9,434,349.53Z" transform="translate(-35.47 -72.41)"/><path class="cls-3" d="M130.56,321.49c-1.06-.29-1.5-2-2-2.92-1-1.88-4.92-8.23-4.18-9.36.87.36,1.33,1.65,1.91,2.62C127.52,313.93,130.72,319.29,130.56,321.49Z" transform="translate(-35.47 -72.41)"/><path class="cls-3" d="M70.3,281c-.92-.17-1.33-1.88-1.74-2.82-.83-1.94-4.35-8.74-3.87-9.7,1.11.41,2.8,4.26,3.44,5.62C68.7,275.28,70.72,279.58,70.3,281Z" transform="translate(-35.47 -72.41)"/><path class="cls-3" d="M107.26,348.62c1,.22,1.48,1.61,2,2.59.65,1.24,4.6,9.15,3.37,9.64-.55.22-1.32-2.13-1.6-2.74C110.19,356.25,107.1,349.83,107.26,348.62Z" transform="translate(-35.47 -72.41)"/><path class="cls-3" d="M398.17,343.14c-1.09,0-2.08-1.48-2.56-2.15-1-1.43-5.51-7.13-5.61-8.48.83.08,1.1.55,1.49,1C393.06,335.28,398.09,341.57,398.17,343.14Z" transform="translate(-35.47 -72.41)"/><path class="cls-3" d="M385.14,342.57c-.95,0-1.67-1.32-2.49-2.33-1.16-1.44-5.74-6.92-5.74-8.17.81-.16,1.08.31,1.47.82l3.2,3.92c.68.88,1.39,1.75,2,2.65C384.09,340.14,385.31,341.51,385.14,342.57Z" transform="translate(-35.47 -72.41)"/><path class="cls-3" d="M113.81,321.18c-1,.26-2.13-1.36-2.6-1.92l-4.4-5c-.72-.87-1.84-2-1.65-2.8.93-.26,2,1.34,2.51,1.95l2.23,2.44C110.68,316.8,114,320.05,113.81,321.18Z" transform="translate(-35.47 -72.41)"/><path class="cls-3" d="M435.94,345.32c-1,.09-2.06-1.35-2.65-1.94-1.23-1.24-6.58-6.2-6.06-7.8.76.08,6,6,6.92,6.93C434.77,343.11,436.05,344.17,435.94,345.32Z" transform="translate(-35.47 -72.41)"/><path class="cls-3" d="M401.41,317.9c-.83-.12-.89-.45-1.4-.91l-3.82-2.94c-2.12-1.41-5.41-2.62-5.59-3.49C393.57,309.84,401.76,316,401.41,317.9Z" transform="translate(-35.47 -72.41)"/><path class="cls-3" d="M51.24,294.53c-.88,0-1.09-1.09-1.69-2.57-.4-1-.85-2-1.3-3-.55-1.25-2.54-5.18-2.24-6.36,1.26.38,2.65,4.12,3.21,5.39S51.54,293.09,51.24,294.53Z" transform="translate(-35.47 -72.41)"/><path class="cls-3" d="M105.09,257.66c-.91.25-1.06-.32-2.08-2-.55-.9-4.38-7.22-4.35-8.11a.68.68,0,0,1,0-.14l.08-.28c1.07-.15,3,3.9,3.58,4.87S105.36,256.63,105.09,257.66Z" transform="translate(-35.47 -72.41)"/><path class="cls-3" d="M119.1,313.16c-.63-.19-.94-.78-1.26-1.21l-5.11-6.34c-.92-1.18-1.82-2-1.44-2.77.89.07,2,1.61,2.53,2.2.72.87,1.4,1.63,2.06,2.45s3.07,3.82,3.31,4.86C119.37,313.1,119.37,312.7,119.1,313.16Z" transform="translate(-35.47 -72.41)"/><path class="cls-3" d="M54.87,292.59c-.92-.06-1.29-1.78-1.68-2.55-1-2-4.39-7.59-3.64-9,.9.15,1.26,1.78,1.63,2.53C52.28,285.7,55.42,290.63,54.87,292.59Z" transform="translate(-35.47 -72.41)"/><path class="cls-3" d="M156.56,307.31c-.77-.42-.58-1.33-1.21-3-.95-2.55-3.64-7-3.46-8.86.71.06.78.37,1.16,1.1,1.27,2.53,3.42,6.32,3.81,9C157,306.25,157,306.84,156.56,307.31Z" transform="translate(-35.47 -72.41)"/><path class="cls-3" d="M409.27,337.59c-.91,0-2-1.29-2.58-2s-1.32-1.56-1.95-2.38c-.78-1-3.39-4-3.41-5.38.81-.07,1,.4,1.37.83C404,330.22,409.2,336.25,409.27,337.59Z" transform="translate(-35.47 -72.41)"/><path class="cls-3" d="M116.47,318.64c-.82,0-2-1.48-2.51-2.13l-5.68-5.93c-1.45-1.42-.41-2,.85-.67l3.51,3.42C113.68,314.37,116.41,317.13,116.47,318.64Z" transform="translate(-35.47 -72.41)"/><path class="cls-3" d="M47.84,294.78c-.75.16-1.2-1.41-1.57-2.15-.86-1.73-4.06-7.36-3.49-8.36,1.4.37,4.37,7.14,4.95,8.81A2,2,0,0,1,47.84,294.78Z" transform="translate(-35.47 -72.41)"/><path class="cls-3" d="M151,304.82c-.59-.28-.54-.59-.68-1.25-.72-3.43-3.69-8.62-3-10.09.71,0,1.14,1.5,1.49,2.27C149.59,297.54,152.35,303.39,151,304.82Z" transform="translate(-35.47 -72.41)"/><path class="cls-3" d="M157.72,277.32c-.89.09-1.44-1.25-1.88-2-.76-1.28-5.64-8.76-3.59-7.89a1.68,1.68,0,0,1,.56.52C154,269.53,158,275.9,157.72,277.32Z" transform="translate(-35.47 -72.41)"/><path class="cls-3" d="M401.21,322.57c-.9.06-1.48-.85-2.52-1.66a25.07,25.07,0,0,0-5.17-3.15c-.86-.43-2.23-.83-2.37-1.61C393.08,315.4,401.25,320.08,401.21,322.57Z" transform="translate(-35.47 -72.41)"/><path class="cls-3" d="M119.27,317.29c-.83,0-.92-.35-1.26-.84l-1.85-2.3c-.91-1.07-4.34-4.87-4.11-6,.81-.1.94.2,1.3.65C114.9,310.73,119.19,315.19,119.27,317.29Z" transform="translate(-35.47 -72.41)"/><path class="cls-3" d="M401.51,342.6c-1-.15-1.67-1.4-2.21-2-.94-1.09-5.23-6.14-4.25-7.76.88.29,1.3,1.62,1.81,2.4C398.18,337.21,401.58,341.15,401.51,342.6Z" transform="translate(-35.47 -72.41)"/><path class="cls-3" d="M153.32,265.46c-1-.09-1-.57-1.87-2-.8-1.28-4.26-6.5-4.2-7.67.89-.12,1.33.71,2.09,1.81C150.34,259,153.57,264.05,153.32,265.46Z" transform="translate(-35.47 -72.41)"/><path class="cls-3" d="M354,335c-1.59-.26-3.57-3-4.56-4-1.26-1.24-2.16-2.54-2.92-3.32-.28-.29-.89-.8-.51-1.19.71-.73,4,3.26,4.4,3.72s.61.64,1,1.1.65.65,1,1.09.52.67.94,1.14A1.71,1.71,0,0,1,354,335Z" transform="translate(-35.47 -72.41)"/><path class="cls-3" d="M402.84,307.38c-1.37-.09-4.45-3.18-7.58-4.7-1-.47-2.13-.62-2.47-1.59C395.62,300.41,402.67,305.6,402.84,307.38Z" transform="translate(-35.47 -72.41)"/><path class="cls-3" d="M131.76,302.06c-1-.4-2.3-4-2.78-5.07s-2.34-4.49-2.2-5.49c1.22.09,2.64,3.41,3.21,4.66.42.91.8,1.8,1.17,2.81S132.21,301.34,131.76,302.06Z" transform="translate(-35.47 -72.41)"/><path class="cls-3" d="M402.57,291.34c-1-.11-6.16-3.08-8.07-4-.91-.47-2.19-.83-2.53-1.59.92-.54,5,1.33,5.93,1.84C399.24,288.32,402.26,290,402.57,291.34Z" transform="translate(-35.47 -72.41)"/><path class="cls-3" d="M437.37,364.41c-.76,0-.81-.38-1.14-.91a6.08,6.08,0,0,0-.83-1.07c-.67-.77-1.25-1.32-2-2s-3.45-3-3.54-4.28a1.7,1.7,0,0,1,1.5.6C433,358.09,438,362.47,437.37,364.41Z" transform="translate(-35.47 -72.41)"/><path class="cls-3" d="M123.22,306.82c-1.28,0-3.35-3.06-4.19-4-.71-.83-1.2-1.45-1.89-2.27-.46-.55-1.52-1.51-1.42-2.4,1.2,0,3.54,2.94,4.28,3.88S123.33,305.74,123.22,306.82Z" transform="translate(-35.47 -72.41)"/><path class="cls-3" d="M124.42,302.31c1,.05,1.44,1.18,1.88,2,.58,1.11,3.8,6.94,3.19,7.55s-1.39-1.25-1.68-1.77C127,308.61,124.36,303.61,124.42,302.31Z" transform="translate(-35.47 -72.41)"/><path class="cls-3" d="M159.58,274.83c-.71.21-1.49-1-1.94-1.65-.93-1.35-4.22-6.85-4.3-7.85C155.44,265.68,159.68,274.34,159.58,274.83Z" transform="translate(-35.47 -72.41)"/><path class="cls-3" d="M401.27,269.11c-.83.14-8.87-5.49-9.11-5.85,0,0-.29-.15-.07-.66,1.24-.28,8.72,5.09,9.16,5.84S401.37,269,401.27,269.11Z" transform="translate(-35.47 -72.41)"/><path class="cls-3" d="M402.61,281c-.94.09-2.69-1.64-4.56-2.77s-4.51-2-4.7-2.86c1.32-.5,4.43,1.21,5.42,1.81S402.55,279.63,402.61,281Z" transform="translate(-35.47 -72.41)"/><path class="cls-3" d="M401,273.23c-1.06,0-1.3-.59-2.33-1.32a44.29,44.29,0,0,0-4.62-2.84c-.82-.48-1.86-.91-2.06-1.75C393.69,267.08,400.56,270.81,401,273.23Z" transform="translate(-35.47 -72.41)"/><path class="cls-3" d="M99.45,255.15c-.92-.12-2.14-2.85-3.18-4.36-.66-1-2.78-3.52-2.84-4.8C95.16,246.17,99.54,252.91,99.45,255.15Z" transform="translate(-35.47 -72.41)"/><path class="cls-3" d="M399.29,264.38c-1-.14-3-2-4.56-3-1.19-.75-4-2.11-4.18-3.25C392.31,258.07,399.13,262.09,399.29,264.38Z" transform="translate(-35.47 -72.41)"/><path class="cls-3" d="M126.19,280.66c-1,0-1.44-1-2-1.62-1.4-1.62-4.12-4.71-4.31-6.64a1,1,0,0,1,1.17.59C122.53,275.06,126.21,279.09,126.19,280.66Z" transform="translate(-35.47 -72.41)"/><path class="cls-3" d="M412.05,307.15c-1.63-.22-7.14-5.23-6.54-7.33.78.11,1.25,1.06,1.71,1.64l3.45,3.48A3.47,3.47,0,0,1,412.05,307.15Z" transform="translate(-35.47 -72.41)"/><path class="cls-3" d="M403.15,297.63c-1,0-1.53-1.21-3.89-2.78-1.68-1.11-3.86-1.82-4-2.84C397,291.52,403.51,295.34,403.15,297.63Z" transform="translate(-35.47 -72.41)"/><path class="cls-3" d="M140.3,302.26c-.82.16-.88-.74-1.22-1.66s-.6-1.57-.92-2.39c-.42-1.09-1.68-3.81-1.15-4.8,1,.2,1.79,3,2.18,3.95C139.66,298.55,140.88,301.15,140.3,302.26Z" transform="translate(-35.47 -72.41)"/><path class="cls-3" d="M402,284.36c-1.18-.12-2.41-1.49-4-2.45s-3.77-1.78-3.74-2.73C396,278.85,402,282.29,402,284.36Z" transform="translate(-35.47 -72.41)"/><path class="cls-3" d="M347.38,339.65c-.37-.68,0-1.34,1.36,0,.6.62,1.11,1,1.72,1.58a22.4,22.4,0,0,1,3,3.65C354.77,348.27,347.58,340,347.38,339.65Z" transform="translate(-35.47 -72.41)"/><path class="cls-3" d="M368.79,329.18c-.63.07-.72-.15-1.07-.54-2-2.16-5.65-4.25-5.74-5.78C363.14,322.72,368.89,327.18,368.79,329.18Z" transform="translate(-35.47 -72.41)"/><path class="cls-3" d="M83.19,243c.75.41,1.8,2.39,2.36,3.4.2.37,2.64,4.42.75,3.45C85.9,249.68,81.05,241.86,83.19,243Z" transform="translate(-35.47 -72.41)"/><path class="cls-3" d="M402,302.17c-1.22.13-3.88-1.94-5.43-2.68-1-.48-1.36-.26-1.58-1.32,1.8-.35,4.27,1.34,5.77,2.33C401.48,301,402.06,301.18,402,302.17Z" transform="translate(-35.47 -72.41)"/><path class="cls-3" d="M149.65,264.91c-1.31-.19-2.21-3-3.61-5.09a5.21,5.21,0,0,1-1-1.78C146.34,257.28,149.7,262.72,149.65,264.91Z" transform="translate(-35.47 -72.41)"/><path class="cls-3" d="M364.41,329.81c-.93-.09-1.2-.71-1.64-1.24-1-1.16-4.09-3.71-3.45-4.34S364.43,327.42,364.41,329.81Z" transform="translate(-35.47 -72.41)"/><path class="cls-3" d="M349.61,335c-1-.21-4.38-4.35-4.45-5l.3-.35c1.2,0,4.52,4.37,4.61,4.94Z" transform="translate(-35.47 -72.41)"/><path class="cls-3" d="M159.72,305.65c-.88-.15-.84-.66-1.22-1.41-.5-1-2.83-4.7-1.53-5.22C157.39,298.85,160.11,303.89,159.72,305.65Z" transform="translate(-35.47 -72.41)"/><path class="cls-3" d="M448.78,310c-.43-1,.49-.91,1-.44a10.36,10.36,0,0,1,1.15,1.47c3.25,4.71,1.42,4.38.87,3.65-.32-.42-.68-1.09-1-1.6A31.41,31.41,0,0,1,448.78,310Z" transform="translate(-35.47 -72.41)"/><path class="cls-3" d="M372.11,328.68c-.94.06-1.18-.47-1.69-1-1.14-1.18-3.45-3-3.45-4.34,1.25,0,2.41,1.64,3.08,2.29S372.12,327.54,372.11,328.68Z" transform="translate(-35.47 -72.41)"/><path class="cls-3" d="M143.61,297.65c-.9-.27-.41-.84-1.58-3.13-.48-.94-1.3-2.58-.69-3.55.88.06.6.82,1.79,3C143.68,294.93,144.33,296.64,143.61,297.65Z" transform="translate(-35.47 -72.41)"/><path class="cls-3" d="M454.71,313.14c-.94,0-1-.44-1.44-1.19-.63-1-2.57-3.84-2.2-4.69,1,.16,1.82,1.6,2.39,2.58C453.91,310.6,455.06,312.19,454.71,313.14Z" transform="translate(-35.47 -72.41)"/><path class="cls-3" d="M433.6,354.19c-.36.26.36.2-.53.16-1.07-.06-4.54-4.24-4-4.82s2.05,1.24,2.65,2a12.35,12.35,0,0,0,1.11,1.32C433.15,353.19,433.68,353.7,433.6,354.19Z" transform="translate(-35.47 -72.41)"/><path class="cls-3" d="M410,318.71c-.84.24-2.31-1.48-2.8-2s-2.34-2.28-1.88-2.74c.73-.72,3.5,2.57,4.06,3.17C409.74,317.56,410.25,318.1,410,318.71Z" transform="translate(-35.47 -72.41)"/><path class="cls-3" d="M387.1,337.59c-1-.12-.89-.4-1.41-1.08-.91-1.16-2.76-3.06-2.61-4.28C384.33,332.33,387.17,335.85,387.1,337.59Z" transform="translate(-35.47 -72.41)"/><path class="cls-3" d="M118.37,266.77c.88-.22,1.48.78,2.37,1.87.27.33,2,2.3,1.46,2.84C121.46,272.23,118.09,267.75,118.37,266.77Z" transform="translate(-35.47 -72.41)"/><path class="cls-3" d="M128.17,279.89c-1,.21-3.83-4-3.62-5,1.19-.19,2.56,2.48,3.21,3.4a2,2,0,0,1,.54,1.06c0,1.12.15-.87,0,.28Z" transform="translate(-35.47 -72.41)"/><path class="cls-3" d="M133.76,275.74c-.83-.08-1.51-1.71-1.86-2.48a16.78,16.78,0,0,1-.67-1.59c-.27-.78-.51-1.21.18-1.56.7.32,1.11,1.62,1.53,2.46S134.28,274.67,133.76,275.74Z" transform="translate(-35.47 -72.41)"/><path class="cls-3" d="M88.76,311.38c-.3-.58-.36-1.39.56-1a20.05,20.05,0,0,1,2.6,3.75c.34.8,0,2.1-1.58-.19A22.62,22.62,0,0,1,88.76,311.38Z" transform="translate(-35.47 -72.41)"/><path class="cls-3" d="M441.46,311.84c1-.32,1.46,1.18,1.93,2,.25.45,1.45,2.13,1.06,2.56C443.54,317.39,441.05,312.91,441.46,311.84Z" transform="translate(-35.47 -72.41)"/><path class="cls-3" d="M120.9,288.72c1-.14,1.6,1.1,2.13,1.91.28.41,1.55,2.24,1.08,2.72-.65.67-1.64-1.31-2-1.82C121.69,290.85,120.71,289.65,120.9,288.72Z" transform="translate(-35.47 -72.41)"/><path class="cls-3" d="M119.21,296.76c-1.06.18-1.86-.95-2.39-1.48-.89-.89-1.75-1.66-1.43-2.51,1.13-.17,2.52,1.79,3.26,2.59A1.49,1.49,0,0,1,119.21,296.76Z" transform="translate(-35.47 -72.41)"/><path class="cls-3" d="M152.65,372.67c-.74.25-.73.05-1-.71-.54-1.54-1.72-3.22-1.38-4.11.68-.26.76,0,1.11.56C152,369.45,153.13,371.46,152.65,372.67Z" transform="translate(-35.47 -72.41)"/><path class="cls-3" d="M135.23,268.16c-.7.06-.84-.21-1.18-.69-.88-1.23-2.33-2.79-2.3-3.79C133.43,263.7,135.59,267.11,135.23,268.16Z" transform="translate(-35.47 -72.41)"/><path class="cls-3" d="M440.84,318.62c-.69-.22-3.49-3.66-2.9-4.28.92-1,3.32,3.46,3.38,3.81Z" transform="translate(-35.47 -72.41)"/><path class="cls-3" d="M359.36,327.36c-.73.11-.8-.06-1.26-.53-.73-.75-3.09-2.77-2.4-3.45.52-.51,1.92,1.28,2.2,1.55C358.53,325.55,359.57,326.28,359.36,327.36Z" transform="translate(-35.47 -72.41)"/><path class="cls-3" d="M357.27,328.41c-1,0-1.81-1.05-2.45-1.61-2.58-2.27-1.41-3.07,1-.85A3.37,3.37,0,0,1,357.27,328.41Z" transform="translate(-35.47 -72.41)"/><path class="cls-3" d="M152,273.39c-1-.08-1.56-1.13-2-1.8-.33-.49-1.45-2-.9-2.5C150,268.32,152.22,272.31,152,273.39Z" transform="translate(-35.47 -72.41)"/><path class="cls-3" d="M123.48,302.06c-1.2.43-3.75-3.23-3.14-3.83s1.58,1.09,1.91,1.5C122.75,300.36,123.81,301.27,123.48,302.06Z" transform="translate(-35.47 -72.41)"/><path class="cls-3" d="M352.62,315.13c0-1.19.57-.07.12-1l-.64-.75c-.43-.57-1.44-3.08,1.68.05C355.38,315.05,354.16,316.23,352.62,315.13Z" transform="translate(-35.47 -72.41)"/><path class="cls-3" d="M374.22,326.17c-.11-.19-.67-1.91,1.62-.1,2.55,2,2.25,3.8.17,1.92-.36-.32-.64-.61-1-.95Z" transform="translate(-35.47 -72.41)"/><path class="cls-3" d="M159.86,373.1c-.62-.09-.6-.18-.89-.83-.63-1.41-1.89-3.15-1-3.43S160.63,371.9,159.86,373.1Z" transform="translate(-35.47 -72.41)"/><path class="cls-3" d="M142.86,370c.22-1,.76-.19,0-1.57-.37-.69-.63-1-.45-1.76.76-.12.68-.09,1.06.44C145.63,370,144.11,371.3,142.86,370Z" transform="translate(-35.47 -72.41)"/><path class="cls-3" d="M163.57,373.33c-.87,0-.82,0-1.09-.76-.45-1.26-1.19-2.69-.83-3.39C163.25,369,163.74,372.32,163.57,373.33Z" transform="translate(-35.47 -72.41)"/><path class="cls-3" d="M445.51,312.65c-.27-.47-.38-1.14.18-1.26s.74.35,1,.7c2.76,3.48,1.14,3.56.19,2.42Z" transform="translate(-35.47 -72.41)"/><path class="cls-3" d="M146.56,368.68c.89-.28.77-.42,1.56,1.43.33.76.94,1.9.49,2.34C147.64,373.36,146.31,369.43,146.56,368.68Z" transform="translate(-35.47 -72.41)"/><path class="cls-3" d="M427.47,329.59c-.33-.49-.39-1,.33-1s2.44,2.49,2.49,2.59c.3.62.08,1.81-1.34.26A13.79,13.79,0,0,1,427.47,329.59Z" transform="translate(-35.47 -72.41)"/><path class="cls-3" d="M86.6,312.34c-.74-.08-1.25-1.26-1.66-1.84-.25-.36-1.41-1.73-.77-2.09S87.5,311.12,86.6,312.34Z" transform="translate(-35.47 -72.41)"/><path class="cls-3" d="M95.38,312.29c1-.12,1.38.76,1.94,1.44.22.28,1.43,1.65.94,2.14S95.16,313.55,95.38,312.29Z" transform="translate(-35.47 -72.41)"/><path class="cls-3" d="M145.73,264.31c-.8.22-1.29-.46-2-1.35-1.57-2.07-1.2-3.68.91-.9C145.13,262.68,145.93,263.41,145.73,264.31Z" transform="translate(-35.47 -72.41)"/><path class="cls-3" d="M132.65,267.91c-.89.18-3-3.29-2.71-4C131.17,264,133.24,266.67,132.65,267.91Z" transform="translate(-35.47 -72.41)"/><path class="cls-3" d="M368.73,313.82c-.16.08-.05.11-.38.09h-.12l-.11,0c-.26-.12-.24-.21-.42-.45-.47-.62-2-2.47-1.13-3.26C367.05,309.74,369,312.86,368.73,313.82Z" transform="translate(-35.47 -72.41)"/><path class="cls-3" d="M138,266.58c-.74-.14-1.73-1.74-2.17-2.46-.29-.49-.41-.7-.13-1.2C136.79,262.76,138.82,265.56,138,266.58Z" transform="translate(-35.47 -72.41)"/><path class="cls-3" d="M184.22,312.65c-.13.05-.06.08-.43.1-1.27.06-2.61-1.78-2.42-3.26,1,0,1.06.54,1.68,1.42C183.49,311.55,184.32,312,184.22,312.65Z" transform="translate(-35.47 -72.41)"/><path class="cls-3" d="M404.9,325.58c.7,0,.75,0,1.16.46.64.72,2.38,2,1.69,2.68C407.28,329.14,404.78,327.24,404.9,325.58Z" transform="translate(-35.47 -72.41)"/><path class="cls-3" d="M378.86,325.54c1-.24,1.43.6,2,1.11.28.26,1.36,1.4.86,1.9s-1.43-.78-1.8-1.14C379.3,326.84,378.65,326.46,378.86,325.54Z" transform="translate(-35.47 -72.41)"/><path class="cls-3" d="M77.46,279.8c-1,.16-.6.24-1.46-1.45-.2-.42-1-1.65-.6-2C76.29,275.42,77.75,278.44,77.46,279.8Z" transform="translate(-35.47 -72.41)"/><path class="cls-3" d="M141,369.11c-1.34.06-2.27-2.53-1.94-3.82.75,0,.62,0,.93.69C140.59,367.53,141.37,368.16,141,369.11Z" transform="translate(-35.47 -72.41)"/><path class="cls-3" d="M193.1,312c-1,0-1.17-.77-1.72-1.45s-1.1-1.07-.83-1.95C191.86,308.48,193.38,310.82,193.1,312Z" transform="translate(-35.47 -72.41)"/><path class="cls-3" d="M357,313.84a1.66,1.66,0,0,0-.14-.53,6.13,6.13,0,0,0-.49-.89c-.21-.38-1-1.87.27-1.52.5.14,2.8,3.44.6,3.64Z" transform="translate(-35.47 -72.41)"/><path class="cls-3" d="M312.75,266.54c-.29-1.1.84-.31-.36-1.88-.73-.93-.5-1.79.56-1.11C314.35,264.44,314.84,267.41,312.75,266.54Z" transform="translate(-35.47 -72.41)"/><path class="cls-3" d="M168,373.28c-1.11.15-1.05-.51-1.46-1.47-.33-.78-.78-1.43-.42-2.13.83-.07,1.11.5,1.45,1.27A4.37,4.37,0,0,1,168,373.28Z" transform="translate(-35.47 -72.41)"/><path class="cls-3" d="M185.06,372.48c-1.13-.06-.87-.69-1.4-1.66-.39-.7-1-1.11-.83-2C183.76,368.73,185.52,370.25,185.06,372.48Z" transform="translate(-35.47 -72.41)"/><path class="cls-3" d="M422.59,359.22c-.91.11-.83-.2-1.86-1.21-.35-.35-1-.89-1-1.39-.1-1,0-.31.14-.56C420.69,355.89,422.75,358,422.59,359.22Z" transform="translate(-35.47 -72.41)"/><path class="cls-3" d="M171.65,373.07c-.67-.05-.52,0-.85-.66l-.51-.87C167.68,367.19,173.3,371.31,171.65,373.07Z" transform="translate(-35.47 -72.41)"/><path class="cls-3" d="M432.28,337.86c-1,.28-1.3-.5-1.8-1.21-.26-.38-1.14-1.45-.74-1.86C430.32,334.19,432.48,336.65,432.28,337.86Z" transform="translate(-35.47 -72.41)"/><path class="cls-3" d="M53,298.15c-.94.07-1-.5-1.48-1.37-.23-.39-1-1.6-.45-1.95C52,294.25,53.45,297.19,53,298.15Z" transform="translate(-35.47 -72.41)"/><path class="cls-3" d="M134.54,367.38c-.67-.31-.82-1-1.15-1.78C131.53,361,136.77,366.53,134.54,367.38Z" transform="translate(-35.47 -72.41)"/><path class="cls-3" d="M114,336.45c.73-.17,1.07.55,1.42,1.31.21.44.9,1.68.31,2C114.9,340.25,113.44,337.21,114,336.45Z" transform="translate(-35.47 -72.41)"/><path class="cls-3" d="M408,309.79c-1.29.16-3.33-2.18-2.76-2.75S408.09,308.5,408,309.79Z" transform="translate(-35.47 -72.41)"/><path class="cls-3" d="M384.25,317.93c-.72.31-1.19-.13-1.91-.43-.48-.2-1.77-.49-1.41-1.16s1.61-.15,2.12.1C383.73,316.76,384.34,317.07,384.25,317.93Z" transform="translate(-35.47 -72.41)"/><path class="cls-3" d="M142.14,265.74c-.77,0-1-.46-1.59-1.31C137.86,260.49,143,263.53,142.14,265.74Z" transform="translate(-35.47 -72.41)"/><path class="cls-3" d="M131.09,366.72c-1.32.33-2.19-2.39-1.91-3.1.72-.12.66-.12,1,.33C130.68,364.65,131.37,365.93,131.09,366.72Z" transform="translate(-35.47 -72.41)"/><path class="cls-3" d="M153.69,368.86c1.28-.14,2.55,2.58,1.86,3.26S153.46,369.6,153.69,368.86Z" transform="translate(-35.47 -72.41)"/><path class="cls-3" d="M362.1,311.22c1.71-.3,2.08,2.76,1.52,3.27C362.77,315.27,362.05,311.62,362.1,311.22Z" transform="translate(-35.47 -72.41)"/><path class="cls-3" d="M198.88,312.65c-.78-.24-.33-.07-.74-.71s-2.11-2.12-.82-2.25C198.09,309.61,200.23,311.71,198.88,312.65Z" transform="translate(-35.47 -72.41)"/><path class="cls-3" d="M157.48,266.86c-1.28.31-2.69-2.27-2.12-2.8s1.25.67,1.44.95C157.25,265.62,157.67,266.1,157.48,266.86Z" transform="translate(-35.47 -72.41)"/><path class="cls-3" d="M193.44,370.79c-1,.1-1-.46-1.51-1.13s-1-.76-.78-1.67C192.3,367.64,193.76,369.49,193.44,370.79Z" transform="translate(-35.47 -72.41)"/><path class="cls-3" d="M135.14,307.3c-1,.05-.91-.32-1.35-1.06a2.34,2.34,0,0,1-.55-1.87c.84-.37,1.09.24,1.48.93A2.27,2.27,0,0,1,135.14,307.3Z" transform="translate(-35.47 -72.41)"/><path class="cls-3" d="M279.14,339.76c-1.38.09-1.81-2.42-1.63-3,.87-.22,1.1.31,1.42,1.05A2.37,2.37,0,0,1,279.14,339.76Z" transform="translate(-35.47 -72.41)"/><path class="cls-3" d="M188.3,312.24c-.85.35-1-.43-1.46-1s-1-.86-.76-1.77C187.28,309.33,188.76,311.33,188.3,312.24Z" transform="translate(-35.47 -72.41)"/><path class="cls-3" d="M90.78,248.21c-1,.06-2.55-2-2.1-3C89.58,245,91.05,247.06,90.78,248.21Z" transform="translate(-35.47 -72.41)"/><path class="cls-3" d="M189.92,372.26c-1.35-.06-2-2.39-1.91-3.08C189.42,369,190.18,371.3,189.92,372.26Z" transform="translate(-35.47 -72.41)"/><path class="cls-3" d="M349.08,326.12c-.87-1.24,1.68-1,2.44.72.47,1.06-.46,1-1,.49C350.24,327.12,349.24,326.34,349.08,326.12Z" transform="translate(-35.47 -72.41)"/><path class="cls-3" d="M144.55,301.67c-.18-.77.45-1,.94-.57a5.16,5.16,0,0,1,.79,1.69C146.56,304.18,145.2,304.41,144.55,301.67Z" transform="translate(-35.47 -72.41)"/><path class="cls-3" d="M153.28,260.1c-.77.14-2-1.38-2.05-2.28l.45-.33c.68.16.85.5,1.25,1a1.79,1.79,0,0,1,.55,1C153.47,260.46,153.43,259.88,153.28,260.1Z" transform="translate(-35.47 -72.41)"/><path class="cls-3" d="M64.13,302.73c-.72.12-.93-.24-1.28-.84-.23-.4-.68-1.28-.32-1.67C63.33,299.36,64.53,301.85,64.13,302.73Z" transform="translate(-35.47 -72.41)"/><path class="cls-3" d="M133,317.27c-.95.06-1-.24-1.4-.86-.25-.4-.86-1.13-.37-1.58C132,314.1,133.09,316.06,133,317.27Z" transform="translate(-35.47 -72.41)"/><path class="cls-3" d="M422.78,290c.9.37,2.37,2.64.75,2.32-.33-.07-.93-.8-1.18-1.15C422,290.67,421.85,289.64,422.78,290Z" transform="translate(-35.47 -72.41)"/><path class="cls-3" d="M76,307.84c-1.43.22-1.76-1.93-1.63-2.66C75.6,304.92,76.31,307,76,307.84Z" transform="translate(-35.47 -72.41)"/><path class="cls-3" d="M385.34,269c-.09,1.54-1.92.85-2.3.64s-.4-.17-.55-.74c.39-.58.46-.49,1.25-.33A9.79,9.79,0,0,1,385.34,269Z" transform="translate(-35.47 -72.41)"/><path class="cls-3" d="M117.13,283c2.4,1.55.9,3.86-.6,1C116.23,283.35,116.36,282.45,117.13,283Z" transform="translate(-35.47 -72.41)"/><path class="cls-3" d="M118.83,345.26c-.72.26-.86.37-1.34-.36-.22-.33-.79-1.1-.62-1.57C117.37,341.92,118.76,344.22,118.83,345.26Z" transform="translate(-35.47 -72.41)"/><path class="cls-3" d="M333.44,260.7c-1.38.23-2.46-1.71-2-2.17C332.15,257.84,333.62,259.67,333.44,260.7Z" transform="translate(-35.47 -72.41)"/><path class="cls-3" d="M104,249.59c.72.33,2.11,2.9.6,2.38a3.64,3.64,0,0,1-1.1-1.17C103.21,250.22,103.22,249.21,104,249.59Z" transform="translate(-35.47 -72.41)"/><path class="cls-3" d="M305.6,269.3c-.92,0-1-.27-1.39-.81s-.76-.68-.46-1.41C304.89,266.6,305.69,268,305.6,269.3Z" transform="translate(-35.47 -72.41)"/><path class="cls-3" d="M347.37,335.53c-.81.35-.75.5-1.43-.2-.19-.19-.86-1-.75-1.38.21-.77,1-.17,1.33.11A2.11,2.11,0,0,1,347.37,335.53Z" transform="translate(-35.47 -72.41)"/><path class="cls-3" d="M416.9,301.8c-.55,0-.77-.56-1.06-1s-.78-1.13-.1-1.36C416.85,299.09,418,301.8,416.9,301.8Z" transform="translate(-35.47 -72.41)"/><path class="cls-3" d="M128.24,265.73c.72-.17.86-.09,1.25.58.23.4.62,1.18.21,1.57C128.93,268.62,128.1,266.61,128.24,265.73Z" transform="translate(-35.47 -72.41)"/><path class="cls-3" d="M319.48,262.16c1.08-.83,2.27.75,2.11,1.33s-.89.26-1.25,0S319.5,263,319.48,262.16Z" transform="translate(-35.47 -72.41)"/><path class="cls-3" d="M282.79,337.51c-.85.09-.84-.1-1.34-.64-.17-.18-.84-.84-.52-1.21C281.61,334.88,283.07,336.21,282.79,337.51Z" transform="translate(-35.47 -72.41)"/><path class="cls-3" d="M126.4,363.1c.9-.08,1.07,0,1,1a1.45,1.45,0,0,1-.54,1.33C125.84,365.17,126.06,364,126.4,363.1Z" transform="translate(-35.47 -72.41)"/><path class="cls-3" d="M163.49,304.24c-.89.08-1,0-1.31-.55s-.69-.9-.25-1.34C162.7,301.59,163.62,303.25,163.49,304.24Z" transform="translate(-35.47 -72.41)"/><path class="cls-3" d="M123.34,364c-1.13.15-1.62-1-1.22-2.24C123.37,361.51,123.52,363.21,123.34,364Z" transform="translate(-35.47 -72.41)"/><path class="cls-3" d="M309.54,267.57a2.06,2.06,0,0,1-.92-2.17c.65-.12.95.13,1.31.68C310.45,266.91,310.33,267.24,309.54,267.57Z" transform="translate(-35.47 -72.41)"/><path class="cls-3" d="M266.17,343.81c-.82.36-.86,0-1.21-.52s-.77-.82-.37-1.25C265.31,341.28,266.51,342.92,266.17,343.81Z" transform="translate(-35.47 -72.41)"/><path class="cls-3" d="M202.79,308.7c.3-.13-.35-.13.44-.12s1.51,1.51,1.05,1.95S202.36,309.57,202.79,308.7Z" transform="translate(-35.47 -72.41)"/><path class="cls-3" d="M137.64,289a1.17,1.17,0,0,1-1.36-.51c-.2-.23-.69-.78-.34-1.17C136.53,286.64,137.87,287.75,137.64,289Z" transform="translate(-35.47 -72.41)"/><path class="cls-3" d="M293.4,272.34l-.91,0a2.21,2.21,0,0,1-.38-1.82C293.38,270.07,293.54,271.36,293.4,272.34Z" transform="translate(-35.47 -72.41)"/><path class="cls-3" d="M380,301.15c0-.6.05-.76.71-.86s1.16,0,1.31.41C382.33,301.66,380.62,301.81,380,301.15Z" transform="translate(-35.47 -72.41)"/><path class="cls-3" d="M76,253.28a1.62,1.62,0,0,1-.12.7c-.35.05-1.08.38-1.23-1.07-.08-.75.07-.64.12-.74C75.55,252,76,252.51,76,253.28Z" transform="translate(-35.47 -72.41)"/><path class="cls-3" d="M301.07,269.42c-1.38.14-1.82-1.47-1.15-1.83S301.29,268.64,301.07,269.42Z" transform="translate(-35.47 -72.41)"/><path class="cls-3" d="M359,330.63c-.77-1,.69-1.42,1.38-.34S360,331.89,359,330.63Z" transform="translate(-35.47 -72.41)"/><path class="cls-3" d="M434.83,321c-1.15.32-2.05-1-1.51-1.51S435,319.94,434.83,321Z" transform="translate(-35.47 -72.41)"/><path class="cls-3" d="M250.23,348.49a1.48,1.48,0,0,1-1.3-1.81C250,346.37,250.71,347.44,250.23,348.49Z" transform="translate(-35.47 -72.41)"/><path class="cls-3" d="M444.81,310.33c-1.19.14-1.86-.43-1.61-1.45C444.18,308.57,444.85,309.23,444.81,310.33Z" transform="translate(-35.47 -72.41)"/><path class="cls-3" d="M353.35,330.81c-.19-.27-.48-.5-.46-.88a.57.57,0,0,1,.82-.51C354.28,329.6,354.86,330.63,353.35,330.81Z" transform="translate(-35.47 -72.41)"/><path class="cls-3" d="M347,258.1c-.52-.49-.86-1.05.19-1.44C348.09,257.09,348.36,258.05,347,258.1Z" transform="translate(-35.47 -72.41)"/><path class="cls-3" d="M244.69,348.16c1-.39,1.16-.12,1.22.92a1.5,1.5,0,0,1-1.15.16Z" transform="translate(-35.47 -72.41)"/><path class="cls-3" d="M282.47,275.13a.63.63,0,1,1-.88.89A.63.63,0,1,1,282.47,275.13Z" transform="translate(-35.47 -72.41)"/><path class="cls-6" d="M349.87,115.8a3.89,3.89,0,1,0,2.58-4.86A3.89,3.89,0,0,0,349.87,115.8Z" transform="translate(-35.47 -72.41)"/><path class="cls-6" d="M372.28,222.22a2.19,2.19,0,1,0,1.45-2.73A2.19,2.19,0,0,0,372.28,222.22Z" transform="translate(-35.47 -72.41)"/><path class="cls-6" d="M323.23,176.07a2.19,2.19,0,1,0,1.46-2.74A2.19,2.19,0,0,0,323.23,176.07Z" transform="translate(-35.47 -72.41)"/><path class="cls-8" d="M322.64,146.45a1.23,1.23,0,1,0,.81-1.54A1.23,1.23,0,0,0,322.64,146.45Z" transform="translate(-35.47 -72.41)"/><path class="cls-6" d="M174.67,287.39a3.89,3.89,0,1,0,2.59-4.86A3.9,3.9,0,0,0,174.67,287.39Z" transform="translate(-35.47 -72.41)"/><path class="cls-9" d="M145.83,203.07a3.9,3.9,0,1,0,2.58-4.86A3.89,3.89,0,0,0,145.83,203.07Z" transform="translate(-35.47 -72.41)"/><path class="cls-9" d="M314.35,350.26a2.19,2.19,0,1,0,1.46-2.73A2.19,2.19,0,0,0,314.35,350.26Z" transform="translate(-35.47 -72.41)"/><path class="cls-8" d="M130.69,156.44a1.23,1.23,0,1,0,.81-1.54A1.23,1.23,0,0,0,130.69,156.44Z" transform="translate(-35.47 -72.41)"/><path class="cls-8" d="M167.3,215.24a1.23,1.23,0,1,0,2.36-.72,1.25,1.25,0,0,0-1.54-.82A1.24,1.24,0,0,0,167.3,215.24Z" transform="translate(-35.47 -72.41)"/><path class="cls-8" d="M93,213a1.23,1.23,0,1,0,.82-1.54A1.24,1.24,0,0,0,93,213Z" transform="translate(-35.47 -72.41)"/><path class="cls-3" d="M149,164.2c3.33,9.78,29.81,87.42,34.32,92.46,2.66,3,10.41,3.64,19.16,2.52,8.47-1.09,18-3.78,24.7-7.57s10.53-7,12.58-9.82a9.74,9.74,0,0,0,1.71-8.7c-1.16-4.57-29.92-83.12-33.21-92.1a26,26,0,0,0,5.23-8.93,9.37,9.37,0,0,0,.34-4.83,7.91,7.91,0,0,0-2.3-4c-3.63-3.51-15.09-11.16-26.83-18.66S161,89.72,156.26,86.82l-1-.65a12.17,12.17,0,0,0-2.66-1.43c-2.49-.8-3.89.26-5.51,5.33-1.92,6-5.37,19.77-8.3,34a293,293,0,0,0-4.86,30.06c-.24,2.72.17,4.66,1.39,6.14s3,2.31,5.61,2.94A38.43,38.43,0,0,0,149,164.2Z" transform="translate(-35.47 -72.41)"/><path class="cls-10" d="M210.52,156c-12.44,2.43-20.08,1-23.81-.22,7.46-3.32,14.23-7.52,19.21-12.35l4.6,12.57ZM237,229.33c-2.89,3.8-16.83,19.65-51.62,25-1.12-1.61-3.39-7-6.24-14.36,7.73,1,32.62,2.19,54.66-19.71,1.3,3.64,2.39,6.73,3.2,9.06Zm-7-19.61c-1.07-3-2.21-6.12-3.37-9.35-29.23,15.23-52.57,7.16-60.74,3.32,1.91,5.4,3.86,10.89,5.77,16.17,4.33,2,25.35,9.8,58.34-10.14Zm-8.46-23.35c-34.17,10-58.42-1.64-63.17-4.21-2.85-8.26-5.1-14.85-6.17-18,1.37,0,2.78-.13,4.2-.26,4.84,2.91,29.24,16.19,60,8.37C218.1,176.83,219.84,181.59,221.57,186.37Z" transform="translate(-35.47 -72.41)"/><path class="cls-11" d="M203.12,157.12c-8.16.75-13.49-.33-16.41-1.3,7.46-3.32,14.23-7.52,19.21-12.35l4.2,11.48a23.56,23.56,0,0,0-7,2.17Zm-20,16.38a35.24,35.24,0,0,0-5.51,15.23,69.94,69.94,0,0,1-19.18-6.57c-2.85-8.26-5.1-14.85-6.17-18,1.37,0,2.78-.13,4.2-.26a80.64,80.64,0,0,0,26.66,9.58Zm-4.45,34.39a109.38,109.38,0,0,0,4.08,14.59,2.77,2.77,0,0,0,.1.26,36.53,36.53,0,0,1-11.13-2.88c-1.91-5.28-3.86-10.77-5.77-16.17a58.68,58.68,0,0,0,12.72,4.2Zm17.3,31.82c6.56,4,14.51,5.16,22.69,4.15-8,4.23-18.8,8.26-33.23,10.48-1.12-1.61-3.39-7-6.24-14.36A61.3,61.3,0,0,0,195.94,239.71Z" transform="translate(-35.47 -72.41)"/><path class="cls-7" d="M188.69,256.13c30.62-5.41,44.76-19,49.21-24.24.32,1,.53,1.65.61,2a6.89,6.89,0,0,1-1.22,6.15c-1.8,2.51-5.34,5.37-11.61,8.94s-15.46,6.16-23.58,7.2c-5.4.69-10.27.74-13.41,0Zm27-86c-26,6.53-47.28-2.41-55.35-6.65a101.42,101.42,0,0,0,23.4-6.37c2.79,1.29,11.55,4.32,27.61,1.13l4.34,11.89Zm10.21,28.08c-31.83,16.71-56.32,5-61.05,2.37-1.88-5.35-3.69-10.54-5.34-15.3,8.11,3.85,31.49,12.53,62.88,3.26,1.18,3.25,2.35,6.49,3.51,9.67ZM233,217.87c-.67-1.87-1.39-3.86-2.13-5.94-30.07,18-50.71,13.53-58.09,10.83,1.93,5.3,3.78,10.33,5.47,14.76C183.61,238.42,210,241.38,233,217.87Z" transform="translate(-35.47 -72.41)"/><path class="cls-12" d="M188.69,256.13c16.8-3,28.64-8.4,36.64-13.56a61,61,0,0,0,13.24-5.19,8,8,0,0,1-1.28,2.62c-1.8,2.51-5.34,5.37-11.61,8.94s-15.46,6.16-23.58,7.2c-5.4.69-10.27.74-13.41,0Zm9.75-96.49h0a49.18,49.18,0,0,0-13.87,11.8,80.83,80.83,0,0,1-24.26-8,101.42,101.42,0,0,0,23.4-6.37c1.93.89,6.69,2.6,14.73,2.54ZM177.34,191a59.41,59.41,0,0,0,.84,14.44,52.6,52.6,0,0,1-13.36-4.88c-1.88-5.35-3.69-10.54-5.34-15.3A76.64,76.64,0,0,0,177.34,191Zm6.4,34.09a43.16,43.16,0,0,1-11-2.34c1.93,5.3,3.78,10.33,5.47,14.76a56.08,56.08,0,0,0,14.94.25A31.65,31.65,0,0,1,183.74,225.1Z" transform="translate(-35.47 -72.41)"/><path class="cls-6" d="M154.67,89.44c4.76,2.88,16.72,10.2,28.39,17.65S206,122,209.4,125.38a4.91,4.91,0,0,1,1.45,2.49,6.39,6.39,0,0,1-.27,3.25,23.39,23.39,0,0,1-5.09,8.41,2.2,2.2,0,0,0-.2.23c-5,5.48-12.71,10.25-21.25,13.88-11.19,4.77-23.78,7.57-33.81,7.52H150a37.15,37.15,0,0,1-8.41-.92c-2-.47-3.26-1-4-1.89s-.88-2.07-.71-3.95a286.75,286.75,0,0,1,4.81-29.71c2.89-14.1,6.31-27.77,8.21-33.69.89-2.77,1.28-3.47,1.67-3.34a10.76,10.76,0,0,1,2,1.09Z" transform="translate(-35.47 -72.41)"/><path class="cls-7" d="M163.38,94.77c5.59,3.44,12.68,7.86,19.68,12.32,8.36,5.34,16.54,10.74,21.76,14.59a5,5,0,0,1-6-.26C194.29,117.66,163.39,94.77,163.38,94.77Z" transform="translate(-35.47 -72.41)"/><path class="cls-4" d="M154.67,89.44c1.49.9,3.68,2.23,6.35,3.87-7.67,6.51-15.11,18.48-8.28,38.92,8,23.84,37.14,12.38,58.19-2.81a7.36,7.36,0,0,1-.35,1.7,23.39,23.39,0,0,1-5.09,8.41,2.2,2.2,0,0,0-.2.23c-5,5.48-12.71,10.25-21.25,13.88-11.19,4.77-23.78,7.57-33.81,7.52H150a37.15,37.15,0,0,1-8.41-.92c-2-.47-3.26-1-4-1.89s-.88-2.07-.71-3.95a286.75,286.75,0,0,1,4.81-29.71c2.89-14.1,6.31-27.77,8.21-33.69.89-2.77,1.28-3.47,1.67-3.34a10.76,10.76,0,0,1,2,1.09Z" transform="translate(-35.47 -72.41)"/><path class="cls-3" d="M154.67,89.44c4.76,2.88,16.72,10.2,28.39,17.65S206,122,209.4,125.38a4.91,4.91,0,0,1,1.45,2.49,6.39,6.39,0,0,1-.27,3.25,23.39,23.39,0,0,1-5.09,8.41,2.2,2.2,0,0,0-.2.23c-5,5.48-12.71,10.25-21.25,13.88-11.19,4.77-23.78,7.57-33.81,7.52H150a37.15,37.15,0,0,1-8.41-.92c-2-.47-3.26-1-4-1.89s-.88-2.07-.71-3.95a286.75,286.75,0,0,1,4.81-29.71c2.89-14.1,6.31-27.77,8.21-33.69.89-2.77,1.28-3.47,1.67-3.34a10.76,10.76,0,0,1,2,1.09l1.09.69ZM237,229.33c-2.89,3.8-16.83,19.65-51.62,25-1.12-1.61-3.39-7-6.24-14.36,7.73,1,32.62,2.19,54.66-19.71,1.3,3.64,2.39,6.73,3.2,9.06Zm-48.33,26.8c3.14.75,8,.7,13.41,0,8.12-1,17.26-3.61,23.58-7.2s9.81-6.43,11.61-8.94a6.89,6.89,0,0,0,1.22-6.15c-.08-.31-.29-1-.61-2-4.45,5.25-18.59,18.83-49.21,24.24ZM233,217.87c-.67-1.87-1.39-3.86-2.13-5.94-30.07,18-50.71,13.53-58.09,10.83,1.93,5.3,3.78,10.33,5.47,14.76,5.4.9,31.76,3.86,54.75-19.65ZM230,209.72c-1.07-3-2.21-6.12-3.37-9.35-29.23,15.23-52.57,7.16-60.74,3.32,1.91,5.4,3.86,10.89,5.77,16.17,4.33,2,25.35,9.8,58.34-10.14Zm-4.16-11.52c-31.83,16.71-56.32,5-61.05,2.37-1.88-5.35-3.69-10.54-5.34-15.3,8.11,3.85,31.49,12.53,62.88,3.26,1.18,3.25,2.35,6.49,3.51,9.67Zm-4.3-11.83c-1.73-4.78-3.47-9.54-5.12-14.08-30.78,7.82-55.18-5.46-60-8.37-1.42.13-2.83.22-4.2.26,1.07,3.13,3.32,9.72,6.17,18,4.75,2.57,29,14.25,63.17,4.21Zm-5.91-16.25-4.34-11.89c-16.06,3.19-24.82.16-27.61-1.13a101.42,101.42,0,0,1-23.4,6.37c8.07,4.24,29.32,13.18,55.35,6.65ZM210.52,156l-4.6-12.57c-5,4.83-11.75,9-19.21,12.35,3.73,1.23,11.37,2.65,23.81.22ZM149,164.2c3.33,9.78,29.81,87.42,34.32,92.46,2.66,3,10.41,3.64,19.16,2.52,8.47-1.09,18-3.78,24.7-7.57s10.53-7,12.58-9.82a9.74,9.74,0,0,0,1.71-8.7c-1.16-4.57-29.92-83.12-33.21-92.1a26,26,0,0,0,5.23-8.93,9.37,9.37,0,0,0,.34-4.83,7.91,7.91,0,0,0-2.3-4c-3.63-3.51-15.09-11.16-26.83-18.66S161,89.72,156.26,86.82l-1-.65a12.17,12.17,0,0,0-2.66-1.43c-2.49-.8-3.89.26-5.51,5.33-1.92,6-5.37,19.77-8.3,34a293,293,0,0,0-4.86,30.06c-.24,2.72.17,4.66,1.39,6.14s3,2.31,5.61,2.94A38.43,38.43,0,0,0,149,164.2Z" transform="translate(-35.47 -72.41)"/><path class="cls-3" d="M230.45,242.93a1.19,1.19,0,0,1-1.86-.17c-.54-1-.09-.09,0-.61A1.26,1.26,0,0,1,230.45,242.93Z" transform="translate(-35.47 -72.41)"/><path class="cls-3" d="M218.15,250.64c-.63.37-1.13,0-1.48-.73l.22-.43C218.74,249.22,218.15,250.63,218.15,250.64Z" transform="translate(-35.47 -72.41)"/><path class="cls-3" d="M215.22,251.63c-1.17.48-1.65-.13-1.25-1.14C214.87,250.46,215.32,250.55,215.22,251.63Z" transform="translate(-35.47 -72.41)"/><path class="cls-3" d="M228.26,244.41c-.81.21-1.14.06-1.53-.7C227.67,242.72,228.48,243.28,228.26,244.41Z" transform="translate(-35.47 -72.41)"/><path class="cls-3" d="M222.22,247c-.65.58-1.49.78-1.55-.32,0,0,.07-.54.87-.41C222.05,246.3,222,246.46,222.22,247Z" transform="translate(-35.47 -72.41)"/><path class="cls-3" d="M140.57,154l-.17-.48h17.3c1.06-.05,2-.1,3.09-.21,2.14-.19,2.07-.51,2.62.29C160.83,155.71,142.59,154.87,140.57,154Z" transform="translate(-35.47 -72.41)"/><path class="cls-3" d="M151.06,148.45c-1.75.85-9.1.94-10.43-.87,2.28-.56,4.8.61,8.8.16,2.53-.29,2-.7,2.87.14Z" transform="translate(-35.47 -72.41)"/><path class="cls-3" d="M208.17,199.54c-.92.18-1.49-.53-2.29-1.09-.63-.45-1.38-.94-2.1-1.47-1.55-1.16-3.68-2.21-3.52-3.35C201.51,193.54,208,197.92,208.17,199.54Z" transform="translate(-35.47 -72.41)"/><path class="cls-3" d="M172.29,197.53c-1,.22-1.2-.17-1.93-.85-1.13-1.09-4-4-3.74-5.4,1.32,0,2.22,1.76,3,2.75A20,20,0,0,1,172.29,197.53Z" transform="translate(-35.47 -72.41)"/><path class="cls-3" d="M195.79,168.27c-.91.08-1-.4-1.79-1.19-1.27-1.27-4-3.37-4.46-4.68,1.08-.13,1.25.22,2.08.86C192.78,164.16,196.11,166.91,195.79,168.27Z" transform="translate(-35.47 -72.41)"/><path class="cls-3" d="M198.76,232.82c-.73-.6-.9-1.88-2.51-3.13-1-.78-2.15-1.24-2.58-2.6,1.58-.08,4.52,2.3,5.14,3.58C199.81,232.72,198.76,232.82,198.76,232.82Z" transform="translate(-35.47 -72.41)"/><path class="cls-3" d="M214.14,197.85c-1.07.44-.9.09-1.87-.65-1.41-1.07-4.13-2.14-4.8-3.77,1-.2,1.14.14,1.93.55C210.92,194.77,213.4,196.15,214.14,197.85Z" transform="translate(-35.47 -72.41)"/><path class="cls-3" d="M220.75,197.32c-1.08.2-1.48-.62-3.78-1.6-.57-.24-1.11-.38-1.9-.64-2.69-.87-1.09-1.51.69-1S220.07,195.34,220.75,197.32Z" transform="translate(-35.47 -72.41)"/><path class="cls-3" d="M204.73,230.35c-.27-1.12.38-.64-.48-1.47a15.87,15.87,0,0,0-1.48-1.13c-.64-.44-.83-.55-1.54-1s-1-.51-1.23-1.33C201.57,224.63,208.29,229.55,204.73,230.35Z" transform="translate(-35.47 -72.41)"/><path class="cls-3" d="M183,198.77c-1.09-.19-4.84-4-5.34-5.09,1.24-.19,2,.65,3.37,2C181.86,196.46,183.27,197.7,183,198.77Z" transform="translate(-35.47 -72.41)"/><path class="cls-3" d="M195.45,199.48c-1-.07-2-1.3-2.73-1.91s-2.08-1.42-2.48-2.53C191.79,194.5,195.62,198.1,195.45,199.48Z" transform="translate(-35.47 -72.41)"/><path class="cls-3" d="M200.83,167.52c-1.54.95-4.84-3.11-5.34-4.33C197.1,163.06,200.64,167.14,200.83,167.52Z" transform="translate(-35.47 -72.41)"/><path class="cls-3" d="M189.18,167.22c-1,0-.76-.07-2-2.16-.29-.48-.64-1-.9-1.5-.44-.86-.46-.95-.32-1.54C187.16,161.91,189.57,166.06,189.18,167.22Z" transform="translate(-35.47 -72.41)"/><path class="cls-3" d="M209.27,165.82c-1.06,0-.77-.21-2.59-1.46-.87-.59-1.81-1-2.22-2.11,1.27-.37,3.2,1.13,4.23,2.08C210.09,165.62,209.3,165.69,209.27,165.82Z" transform="translate(-35.47 -72.41)"/><path class="cls-3" d="M177.59,216.78c-.84.21-.52.59-2.47-1.47-1.42-1.5-1.57-1.62-1.29-2.46.81.05,1.35.76,2.12,1.53A4.63,4.63,0,0,1,177.59,216.78Z" transform="translate(-35.47 -72.41)"/><path class="cls-3" d="M222.71,193.86c-1.38.42-4.77-.7-5.39-2.3C218.2,191.5,222.23,192.55,222.71,193.86Z" transform="translate(-35.47 -72.41)"/><path class="cls-3" d="M188.28,198c-1.57.3-3.26-3.45-3.05-4.14C186.6,193.5,188.31,197.39,188.28,198Z" transform="translate(-35.47 -72.41)"/><path class="cls-3" d="M239.19,236.57c-1.2.2-.53.18-1.53-.27-1.32-.59-2.44-.47-3.32-2.18C235.64,233.89,238.67,235.07,239.19,236.57Z" transform="translate(-35.47 -72.41)"/><path class="cls-3" d="M174.65,153.42a21.49,21.49,0,0,0-1.39-2.37c-.76-.84-1-.48-1.63-1.78a3.26,3.26,0,0,1,3.46,2.85C175.29,153.28,175.19,152.93,174.65,153.42Z" transform="translate(-35.47 -72.41)"/><path class="cls-3" d="M237.46,239.54l-.17,0-.69-.18c-1.55-.65-2.59-1-2.64-1.87.39-.36.66-.33,1.18-.17a9.88,9.88,0,0,1,1,.45c.81.39,1.6.57,1.66,1.54Z" transform="translate(-35.47 -72.41)"/><path class="cls-3" d="M186.08,232.23c-.92-.18-.45-.54-1.73-1.46-.22-.16-.81-.51-.92-.62-.64-.6-.42-.64-.36-1C184.25,229.11,187.08,230.47,186.08,232.23Z" transform="translate(-35.47 -72.41)"/><path class="cls-3" d="M182.9,117.68c-.69-.56-.82-1.22-.32-2.36a2.49,2.49,0,0,1,1.81-1.69c.23,1.09-.26,1.3-.64,2C183.21,116.72,183.74,116.93,182.9,117.68Z" transform="translate(-35.47 -72.41)"/><path class="cls-3" d="M168,196.63c-1-.39-.63-.72-1.32-1.82-.49-.78-.81-.76-1.27-1.7C166.87,192.44,168.84,195,168,196.63Z" transform="translate(-35.47 -72.41)"/><path class="cls-3" d="M178.75,212.89c2.61,2.5-1.3,3.07-2.3,1.35.68-.49.78-.31,1.73-.36C178.41,212.52,177.89,213.55,178.75,212.89Z" transform="translate(-35.47 -72.41)"/><path class="cls-3" d="M206.15,166.93c-.6,0-3.46-1.18-3.53-2.17.86-.61,3.11.48,3.51,1.53C206.3,166.76,206.18,166.64,206.15,166.93Z" transform="translate(-35.47 -72.41)"/><path class="cls-3" d="M179.21,150.66c-1-.16-.83-.74-1.78-1.28-.44-.24-.72-.2-1-.44-1-.85-.25-.65-.23-.77C177.19,147.62,180.06,149,179.21,150.66Z" transform="translate(-35.47 -72.41)"/><path class="cls-3" d="M211.63,163.31c-.77.27-2.89-1.1-3-2.23.39-.44.4-.47.92-.23l.89.7C211.45,162.39,211.8,162.43,211.63,163.31Z" transform="translate(-35.47 -72.41)"/><path class="cls-3" d="M193.44,178.41c.54-.07.54-.41,1.11.64.76,1.4.56,2.87-.89,2.7-.11-.84.18-.73,0-1.6S193.26,179.38,193.44,178.41Z" transform="translate(-35.47 -72.41)"/><path class="cls-3" d="M152.7,117.53c-1,.23-.62-.07-1.62-.59s-1.05,0-1.72-1.22C150.94,115.25,152.49,115.69,152.7,117.53Z" transform="translate(-35.47 -72.41)"/><path class="cls-3" d="M209.68,228.82c-1.1.38-2.91-1.93-3-2.24C207.71,226.05,209.44,226.93,209.68,228.82Z" transform="translate(-35.47 -72.41)"/><path class="cls-3" d="M194.12,125.06c-1.13-2,2.88-4.28,1.4-1C194.67,125.92,194.12,125.06,194.12,125.06Z" transform="translate(-35.47 -72.41)"/><path class="cls-3" d="M171.65,153.43c-1.27.2-.79.25-1.72-.89a4.92,4.92,0,0,1-1.17-1.65C170.21,150.57,171.37,152.09,171.65,153.43Z" transform="translate(-35.47 -72.41)"/><path class="cls-3" d="M201.59,199.6c-1.07.16-1.07-.15-1.78-1-.56-.65-.76-.79-.83-1.58C200.35,196.75,201.41,198.33,201.59,199.6Z" transform="translate(-35.47 -72.41)"/><path class="cls-3" d="M148.09,142.55c-.66.52-2.68,1.25-3.37.11.47-.62.85-.64,1.71-.77C147.58,141.72,147.64,141.68,148.09,142.55Z" transform="translate(-35.47 -72.41)"/><path class="cls-3" d="M172.19,165.51c-1.28.3-2.17-.76-2.6-2.23,1.07-.3.82-.16,1.7.72C172,164.69,172.12,164.45,172.19,165.51Z" transform="translate(-35.47 -72.41)"/><path class="cls-3" d="M215.21,225.78a5.47,5.47,0,0,1-2.63-2C214,223.44,216.18,224.12,215.21,225.78Z" transform="translate(-35.47 -72.41)"/><path class="cls-3" d="M182.07,148.43c-.89.33-2.43-.76-2.78-1.72.84-.64,1.08-.34,1.74.16A2,2,0,0,1,182.07,148.43Z" transform="translate(-35.47 -72.41)"/><path class="cls-3" d="M184.85,233.79c-1,.21-1.16.06-1.88-.54s-.84-.79-.86-1.49C183.31,231.54,184.35,232.51,184.85,233.79Z" transform="translate(-35.47 -72.41)"/><path class="cls-3" d="M152.6,113.32c-1.46.64-2.6-.09-3-1.63C150.62,111.45,152.13,112.46,152.6,113.32Z" transform="translate(-35.47 -72.41)"/><path class="cls-3" d="M178.7,165.18c-1.14-.08-1.81-2.18-1.87-2.8A2.05,2.05,0,0,1,178.7,165.18Z" transform="translate(-35.47 -72.41)"/><path class="cls-3" d="M197.09,155.52s-.49-2.34-.48-2.43c.85-.18.27-.49,1.12.25S198.82,155.58,197.09,155.52Z" transform="translate(-35.47 -72.41)"/><path class="cls-3" d="M220.79,248.64c-.84.56-.54.27-1.55,0-.81-.25-.93.08-1.17-.8A1.59,1.59,0,0,1,220.79,248.64Z" transform="translate(-35.47 -72.41)"/><path class="cls-3" d="M226.39,245.93a2.47,2.47,0,0,1-1.61-.17c-.74-.23-.85-.26-1.1-1A1.7,1.7,0,0,1,226.39,245.93Z" transform="translate(-35.47 -72.41)"/><path class="cls-3" d="M184.23,166.15c-.81-.06-.59.07-1.16-.88a2.18,2.18,0,0,1-.5-1.37C183.91,163.5,184.73,165.13,184.23,166.15Z" transform="translate(-35.47 -72.41)"/><path class="cls-3" d="M189.21,122.86a1.75,1.75,0,0,1-.07-1.43c.28-1,.27-1,1.14-1.22C190.71,121.31,190.37,122.71,189.21,122.86Z" transform="translate(-35.47 -72.41)"/><path class="cls-3" d="M150.78,121c-.9.77-2-.37-2.43-1.38a2,2,0,0,1,2.39.87C150.9,120.87,150.79,120.87,150.78,121Z" transform="translate(-35.47 -72.41)"/><path class="cls-3" d="M187,117.47s.48-.13.33,1.27c-.08.76-.09.85-.92,1.19C185.85,119.08,185.8,117.56,187,117.47Z" transform="translate(-35.47 -72.41)"/><path class="cls-3" d="M196.08,243.55c.7-.22.88-.2,1.43.36.41.41.77.85.36,1.26C197.19,245.87,196,244.3,196.08,243.55Z" transform="translate(-35.47 -72.41)"/><path class="cls-3" d="M204.5,181.3c-1.31.23-1.55-.86-1.43-1.73.61-.2.66-.56,1.25.37S204.54,181.17,204.5,181.3Z" transform="translate(-35.47 -72.41)"/><path class="cls-3" d="M214.87,210.38c-1.3.23-1.54-.86-1.43-1.74.61-.2.66-.56,1.25.38S214.9,210.25,214.87,210.38Z" transform="translate(-35.47 -72.41)"/><path class="cls-3" d="M188.17,248c-.7.25-.81.32-1.26-.38-.55-.88-.2-1.23-.16-1.34.62-.08.62-.39,1.18.56C188.36,247.54,188.25,247.39,188.17,248Z" transform="translate(-35.47 -72.41)"/><path class="cls-3" d="M155.29,146.67a2.3,2.3,0,0,1,2-.64c.32.81.49.9-.66,1.27C155.69,147.59,155.67,147.38,155.29,146.67Z" transform="translate(-35.47 -72.41)"/><path class="cls-3" d="M171.67,175c1,.53-.86,1.48-1.59,1.67A1.25,1.25,0,0,1,171.67,175Z" transform="translate(-35.47 -72.41)"/><path class="cls-3" d="M152.89,109.41s.12.79-1.2.34c-.58-.2-.64-.42-.71-1C152,108.42,153,108.38,152.89,109.41Z" transform="translate(-35.47 -72.41)"/><path class="cls-3" d="M209.52,239.59s-.16-1.1,1.16-.31c.27.16.73.65.53,1.06C210.86,241.1,209.61,240.34,209.52,239.59Z" transform="translate(-35.47 -72.41)"/><path class="cls-3" d="M218.06,238.58c-1.05.48-1.56,0-1.75-1,0,0-.35-.38.7-.31S218.06,238.58,218.06,238.58Z" transform="translate(-35.47 -72.41)"/><path class="cls-3" d="M197.71,126.87c-.89-.45.06-1.52,1-1.75C199.3,125.88,198.57,127.3,197.71,126.87Z" transform="translate(-35.47 -72.41)"/><path class="cls-3" d="M201.63,127.74c.22.76-.13,1.13-.82,1.43a1.05,1.05,0,0,1,.49-1.93C201.65,127.59,201.32,126.64,201.63,127.74Z" transform="translate(-35.47 -72.41)"/><path class="cls-3" d="M177.76,197.7c-.7.3-.92.51-1.34-.33s-.11-.88.54-1.11C177.72,196.82,177.66,196.7,177.76,197.7Z" transform="translate(-35.47 -72.41)"/><path class="cls-3" d="M185.93,214.32c-.59.26-.75.37-1.14-.14-.77-1-.09-1.05-.09-1.06C185.47,212.62,186,213.4,185.93,214.32Z" transform="translate(-35.47 -72.41)"/><path class="cls-3" d="M147.2,135.27c-.07.1.3.31-.63.61s-.69,0-.88-.07c-.09-.56-.48-.73.47-1.07S146.93,134.76,147.2,135.27Z" transform="translate(-35.47 -72.41)"/><path class="cls-3" d="M204,149.86c1-.47,1.33.34,1.41,1.21C204.37,151.4,203.89,151.18,204,149.86Z" transform="translate(-35.47 -72.41)"/><path class="cls-3" d="M202.12,153.35c-.63.26-.76.36-1.16-.18-.59-.82-.13-.93-.1-1.06C201.88,151.92,202.24,152.36,202.12,153.35Z" transform="translate(-35.47 -72.41)"/><path class="cls-3" d="M177.53,177c.88.46-.21,1.24-1.07,1.4C175.86,177.28,176.78,176.57,177.53,177Z" transform="translate(-35.47 -72.41)"/><path class="cls-3" d="M234.48,240.17c-1.13.38-1.74.39-1.86-.87C233.55,238.84,234,239.23,234.48,240.17Z" transform="translate(-35.47 -72.41)"/><path class="cls-3" d="M182.07,178.37a2.09,2.09,0,0,1,1.52-.75c.21.7.38.88-.39,1.31S182.38,179,182.07,178.37Z" transform="translate(-35.47 -72.41)"/><path class="cls-3" d="M192.08,246c-1.06.49-1.15.11-1.5-1.08C191.66,244.54,192.16,244.86,192.08,246Z" transform="translate(-35.47 -72.41)"/><path class="cls-3" d="M166.31,152.33a1.32,1.32,0,0,1,.53,1.6C165.52,154.2,165,153,166.31,152.33Z" transform="translate(-35.47 -72.41)"/><path class="cls-3" d="M210.33,211.34c-.67.23-.85.5-1.16-.37s0-.8.66-1C210.46,210.48,210.47,210.51,210.33,211.34Z" transform="translate(-35.47 -72.41)"/><path class="cls-3" d="M232.65,241.69c-1,.54-2,.29-1-.93C232.62,240.92,232.21,240.66,232.65,241.69Z" transform="translate(-35.47 -72.41)"/><path class="cls-3" d="M193.46,232.91c-.08.07.2.27-.7.36s-.65-.71-2-1.68c-.83-.61-2.42-1.33-2.75-2.45,1-.51,1.06-.24,1.77.28C191.08,230.38,193.41,231.45,193.46,232.91Z" transform="translate(-35.47 -72.41)"/><path class="cls-3" d="M191.9,212.83c1.42-.24,2,2.24.83,2.48A2.32,2.32,0,0,1,191.9,212.83Z" transform="translate(-35.47 -72.41)"/><path class="cls-3" d="M189.32,177.49c.89.29,1.15.8,1.05,1.94l-1.15.3-.33-.66A1.93,1.93,0,0,1,189.32,177.49Z" transform="translate(-35.47 -72.41)"/><path class="cls-3" d="M175,164.69c-.88.69-1.64-.31-2-1.53.77-.23.9-.3,1.5.3C175.5,164.42,175,164.66,175,164.69Z" transform="translate(-35.47 -72.41)"/><path class="cls-3" d="M154.37,101.93s0,.79-1.29.27a1.33,1.33,0,0,1-.9-1.09A1.3,1.3,0,0,1,154.37,101.93Z" transform="translate(-35.47 -72.41)"/><path class="cls-3" d="M203.21,243.75c-.85.75-1.62-.35-2-1.52A1.42,1.42,0,0,1,203.21,243.75Z" transform="translate(-35.47 -72.41)"/><path class="cls-3" d="M340,151.34c-2.17,10.1-19.52,90.29-23.42,95.81-2.3,3.26-9.93,4.81-18.75,4.71-8.54-.1-18.35-1.67-25.4-4.67s-11.27-5.69-13.63-8.3a9.73,9.73,0,0,1-2.7-8.44c.62-4.68,20.13-86,22.36-95.32a26,26,0,0,1-6.23-8.27,9.39,9.39,0,0,1-.89-4.76,7.8,7.8,0,0,1,1.82-4.28c3.19-3.91,13.69-12.83,24.49-21.64s21.82-17.43,26.22-20.86l1-.77a13.17,13.17,0,0,1,2.49-1.73c2.38-1.08,3.89-.18,6.09,4.66,2.59,5.71,7.61,19,12.16,32.83a292.74,292.74,0,0,1,8.3,29.29c.55,2.69.36,4.66-.67,6.27s-2.71,2.64-5.23,3.57A38.82,38.82,0,0,1,340,151.34Z" transform="translate(-35.47 -72.41)"/><path class="cls-9" d="M277.91,150.34c12.64,1,20.06-1.31,23.63-3-7.8-2.45-15-5.84-20.51-10.06-.62,2.6-1.73,7.21-3.12,13ZM260,226.2c3.31,3.44,19,17.58,54.16,18.88.93-1.73,2.57-7.31,4.55-15-7.57,1.9-32.16,5.94-56.57-13.28-.87,3.77-1.6,7-2.14,9.38Zm4.68-20.29c.72-3.08,1.49-6.33,2.28-9.67,30.79,11.75,53,1,60.71-3.71-1.27,5.58-2.58,11.26-3.87,16.72-4.06,2.5-24,12.66-59.12-3.34Zm5.71-24.17c35.1,6,57.85-8.36,62.26-11.47,1.89-8.53,3.36-15.34,4.06-18.57-1.36.12-2.77.19-4.2.23-4.47,3.44-27.18,19.45-58.65,15.23C272.78,171.86,271.6,176.79,270.43,181.74Z" transform="translate(-35.47 -72.41)"/><path class="cls-13" d="M285.39,150.55c8.18-.19,13.35-1.88,16.15-3.17-7.8-2.45-15-5.84-20.51-10.06-.59,2.43-1.59,6.61-2.85,11.89a23.77,23.77,0,0,1,7.21,1.34Zm21.78,14A35.12,35.12,0,0,1,314.4,179a69.65,69.65,0,0,0,18.29-8.74c1.89-8.53,3.36-15.34,4.06-18.57-1.36.12-2.77.19-4.2.23a80.75,80.75,0,0,1-25.38,12.59Zm8.4,33.64a110.52,110.52,0,0,1-2.38,15c0,.09-.05.17-.07.26a36.4,36.4,0,0,0,10.72-4.14c1.29-5.46,2.6-11.14,3.87-16.72a59.18,59.18,0,0,1-12.14,5.63Zm-13.52,33.61c-6.06,4.71-13.82,6.79-22.07,6.74,8.4,3.28,19.63,6,34.22,6.57.93-1.73,2.57-7.31,4.55-15A61.46,61.46,0,0,1,302.05,231.77Z" transform="translate(-35.47 -72.41)"/><path class="cls-7" d="M311.14,247.24c-31-1.84-46.65-13.7-51.67-18.4-.21,1-.35,1.7-.39,2a6.88,6.88,0,0,0,1.93,6c2.07,2.28,5.91,4.71,12.56,7.54s16.06,4.33,24.26,4.42c5.44.07,10.28-.45,13.31-1.55Zm-36.71-82.32c26.61,3.48,46.69-7.86,54.21-13a101.22,101.22,0,0,1-24-3.62c-2.62,1.6-11,5.62-27.29,4.3-.9,3.75-1.89,7.91-2.94,12.32ZM267.53,194c33.53,12.93,56.51-1.55,60.91-4.69,1.25-5.52,2.45-10.89,3.54-15.8-7.61,4.75-29.83,16.07-62.08,10.49-.8,3.36-1.59,6.72-2.37,10Zm-4.78,20.36c.45-1.93.93-4,1.44-6.15,31.94,14.44,51.93,7.6,58.94,4.06-1.29,5.49-2.56,10.7-3.73,15.3C314.15,229.07,288.3,235,262.75,214.34Z" transform="translate(-35.47 -72.41)"/><path class="cls-12" d="M311.14,247.24c-17-1-29.41-5-37.95-9.24a61.64,61.64,0,0,1-13.76-3.63,8.27,8.27,0,0,0,1.58,2.46c2.07,2.28,5.91,4.71,12.56,7.54s16.06,4.33,24.26,4.42c5.44.07,10.28-.45,13.31-1.55Zm-20.81-94.72h0a49.21,49.21,0,0,1,15.13,10.12,80.46,80.46,0,0,0,23.18-10.72,101.22,101.22,0,0,1-24-3.62c-1.81,1.1-6.34,3.36-14.33,4.22Zm24.57,28.73a59.63,59.63,0,0,1,.83,14.44,52.53,52.53,0,0,0,12.71-6.4c1.25-5.52,2.45-10.89,3.54-15.8a76.92,76.92,0,0,1-17.08,7.76Zm-2.43,34.6a31.55,31.55,0,0,1-7.88,13.67,56.11,56.11,0,0,0,14.81-2c1.17-4.6,2.44-9.81,3.73-15.3A42.77,42.77,0,0,1,312.47,215.85Z" transform="translate(-35.47 -72.41)"/><path class="cls-6" d="M325.7,77.73c-4.39,3.42-15.42,12.07-26.16,20.82s-21,17.49-24.06,21.2a4.85,4.85,0,0,0-1.14,2.65,6.23,6.23,0,0,0,.64,3.19,23.16,23.16,0,0,0,6,7.77,2.09,2.09,0,0,1,.22.2c5.63,4.87,13.81,8.71,22.72,11.34,11.67,3.44,24.5,4.77,34.45,3.57l.22,0a37.67,37.67,0,0,0,8.25-1.88c1.89-.7,3.11-1.4,3.71-2.33s.63-2.16.25-4a287,287,0,0,0-8.21-29c-4.5-13.67-9.47-26.85-12-32.52-1.2-2.64-1.67-3.29-2-3.13a11.21,11.21,0,0,0-1.82,1.32C326.38,77.19,326,77.48,325.7,77.73Z" transform="translate(-35.47 -72.41)"/><path class="cls-7" d="M317.67,84c-5.15,4.07-11.7,9.27-18.13,14.52-7.68,6.27-15.19,12.57-19.93,17a5,5,0,0,0,5.89-1C289.61,110.34,317.66,84,317.67,84Z" transform="translate(-35.47 -72.41)"/><path class="cls-4" d="M325.7,77.73c-1.37,1.07-3.4,2.65-5.85,4.59C328.21,87.9,337,98.93,332.56,120c-5.17,24.6-35.46,16.58-58.13,3.92a7.43,7.43,0,0,0,.55,1.65,23.16,23.16,0,0,0,6,7.77,2.09,2.09,0,0,1,.22.2c5.63,4.87,13.81,8.71,22.72,11.34,11.67,3.44,24.5,4.77,34.45,3.57l.22,0a37.67,37.67,0,0,0,8.25-1.88c1.89-.7,3.11-1.4,3.71-2.33s.63-2.16.25-4a287,287,0,0,0-8.21-29c-4.5-13.67-9.47-26.85-12-32.52-1.2-2.64-1.67-3.29-2-3.13a11.21,11.21,0,0,0-1.82,1.32C326.38,77.19,326,77.48,325.7,77.73Z" transform="translate(-35.47 -72.41)"/><path class="cls-3" d="M325.7,77.73c-4.39,3.42-15.42,12.07-26.16,20.82s-21,17.49-24.06,21.2a4.85,4.85,0,0,0-1.14,2.65,6.23,6.23,0,0,0,.64,3.19,23.16,23.16,0,0,0,6,7.77,2.09,2.09,0,0,1,.22.2c5.63,4.87,13.81,8.71,22.72,11.34,11.67,3.44,24.5,4.77,34.45,3.57l.22,0a37.67,37.67,0,0,0,8.25-1.88c1.89-.7,3.11-1.4,3.71-2.33s.63-2.16.25-4a287,287,0,0,0-8.21-29c-4.5-13.67-9.47-26.85-12-32.52-1.2-2.64-1.67-3.29-2-3.13a11.21,11.21,0,0,0-1.82,1.32c-.33.26-.68.55-1,.8ZM260,226.2c3.31,3.44,19,17.58,54.16,18.88.93-1.73,2.57-7.31,4.55-15-7.57,1.9-32.16,5.94-56.57-13.28-.87,3.77-1.6,7-2.14,9.38Zm51.1,21c-3,1.1-7.87,1.62-13.31,1.55-8.2-.09-17.57-1.59-24.26-4.42s-10.49-5.26-12.56-7.54a6.88,6.88,0,0,1-1.93-6c0-.31.18-1,.39-2,5,4.7,20.63,16.56,51.67,18.4Zm-48.39-32.9c.45-1.93.93-4,1.44-6.15,31.94,14.44,51.93,7.6,58.94,4.06-1.29,5.49-2.56,10.7-3.73,15.3-5.25,1.52-31.1,7.49-56.65-13.21Zm2-8.43c.72-3.08,1.49-6.33,2.28-9.67,30.79,11.75,53,1,60.71-3.71-1.27,5.58-2.58,11.26-3.87,16.72-4.06,2.5-24,12.66-59.12-3.34ZM267.53,194c33.53,12.93,56.51-1.55,60.91-4.69,1.25-5.52,2.45-10.89,3.54-15.8-7.61,4.75-29.83,16.07-62.08,10.49-.8,3.36-1.59,6.72-2.37,10Zm2.9-12.24c1.17-5,2.35-9.88,3.47-14.58,31.47,4.22,54.18-11.79,58.65-15.23,1.43,0,2.84-.11,4.2-.23-.7,3.23-2.17,10-4.06,18.57-4.41,3.11-27.16,17.5-62.26,11.47Zm4-16.82c1.05-4.41,2-8.57,2.94-12.32,16.31,1.32,24.67-2.7,27.29-4.3a101.22,101.22,0,0,0,24,3.62c-7.52,5.14-27.6,16.48-54.21,13Zm3.48-14.58c1.39-5.81,2.5-10.42,3.12-13,5.5,4.22,12.71,7.61,20.51,10.06-3.57,1.65-11,3.94-23.63,3Zm62,1c-2.17,10.1-19.52,90.29-23.42,95.81-2.3,3.26-9.93,4.81-18.75,4.71-8.54-.1-18.35-1.67-25.4-4.67s-11.27-5.69-13.63-8.3a9.73,9.73,0,0,1-2.7-8.44c.62-4.68,20.13-86,22.36-95.32a26,26,0,0,1-6.23-8.27,9.39,9.39,0,0,1-.89-4.76,7.8,7.8,0,0,1,1.82-4.28c3.19-3.91,13.69-12.83,24.49-21.64s21.82-17.43,26.22-20.86l1-.77a13.17,13.17,0,0,1,2.49-1.73c2.38-1.08,3.89-.18,6.09,4.66,2.59,5.71,7.61,19,12.16,32.83a292.74,292.74,0,0,1,8.3,29.29c.55,2.69.36,4.66-.67,6.27s-2.71,2.64-5.23,3.57A38.82,38.82,0,0,1,340,151.34Z" transform="translate(-35.47 -72.41)"/><path class="cls-3" d="M268.13,239a1.2,1.2,0,0,0,1.83-.38c.42-1.1.08-.11-.1-.61A1.27,1.27,0,0,0,268.13,239Z" transform="translate(-35.47 -72.41)"/><path class="cls-3" d="M281.25,245.19c.66.29,1.13-.11,1.38-.9l-.27-.4C280.49,243.84,281.24,245.18,281.25,245.19Z" transform="translate(-35.47 -72.41)"/><path class="cls-3" d="M284.27,245.83c1.22.35,1.62-.32,1.11-1.27C284.49,244.63,284,244.78,284.27,245.83Z" transform="translate(-35.47 -72.41)"/><path class="cls-3" d="M270.49,240.16c.82.12,1.14-.07,1.43-.87C270.87,238.42,270.14,239.07,270.49,240.16Z" transform="translate(-35.47 -72.41)"/><path class="cls-3" d="M276.77,242c.72.5,1.57.61,1.51-.49,0,0-.13-.54-.91-.32C276.87,241.33,277,241.48,276.77,242Z" transform="translate(-35.47 -72.41)"/><path class="cls-3" d="M347.16,140.24l.12-.5-17.19,2c-1.06.08-2,.14-3.09.16-2.15.05-2.12-.27-2.57.59C327.24,144.28,345.24,141.34,347.16,140.24Z" transform="translate(-35.47 -72.41)"/><path class="cls-3" d="M336.1,135.94c1.83.64,9.14-.12,10.25-2.07-2.32-.29-4.68,1.16-8.72,1.17-2.53,0-2.07-.45-2.83.48Z" transform="translate(-35.47 -72.41)"/><path class="cls-3" d="M285.26,193.28c.93.08,1.42-.7,2.15-1.35.58-.52,1.26-1.09,1.91-1.71,1.41-1.32,3.41-2.61,3.12-3.73C291.19,186.55,285.28,191.65,285.26,193.28Z" transform="translate(-35.47 -72.41)"/><path class="cls-3" d="M320.67,187.14c1,.1,1.18-.3,1.81-1.07,1-1.2,3.48-4.47,3.1-5.8-1.3.19-2,2-2.67,3.09A20.13,20.13,0,0,0,320.67,187.14Z" transform="translate(-35.47 -72.41)"/><path class="cls-3" d="M294,160.79c.91,0,.93-.51,1.64-1.4,1.12-1.4,3.55-3.8,3.89-5.15-1.08,0-1.21.35-2,1.09C296.46,156.35,293.48,159.48,294,160.79Z" transform="translate(-35.47 -72.41)"/><path class="cls-3" d="M298.46,225.25c.65-.69.66-2,2.12-3.4.91-.9,2-1.48,2.26-2.88-1.58.1-4.22,2.81-4.69,4.15C297.4,225.27,298.45,225.24,298.46,225.25Z" transform="translate(-35.47 -72.41)"/><path class="cls-3" d="M279.14,192.28c1.11.32.89,0,1.78-.86,1.28-1.23,3.86-2.6,4.33-4.3-1-.08-1.11.27-1.85.77C282,188.86,279.68,190.51,279.14,192.28Z" transform="translate(-35.47 -72.41)"/><path class="cls-3" d="M272.51,192.52c1.1.08,1.4-.79,3.57-2,.54-.3,1.06-.5,1.82-.85,2.56-1.17.9-1.63-.82-.95S273,190.48,272.51,192.52Z" transform="translate(-35.47 -72.41)"/><path class="cls-3" d="M292.24,223.48c.13-1.14-.46-.59.3-1.52a15.61,15.61,0,0,1,1.35-1.29c.57-.5.75-.64,1.4-1.15s1-.63,1.07-1.47C294.72,217.43,288.61,223.1,292.24,223.48Z" transform="translate(-35.47 -72.41)"/><path class="cls-3" d="M310.16,189.61c1.06-.32,4.34-4.54,4.72-5.67-1.26,0-1.92.87-3.12,2.35C311,187.18,309.79,188.57,310.16,189.61Z" transform="translate(-35.47 -72.41)"/><path class="cls-3" d="M297.89,191.75c1-.18,1.82-1.52,2.49-2.22s1.91-1.65,2.17-2.8C301,186.38,297.56,190.4,297.89,191.75Z" transform="translate(-35.47 -72.41)"/><path class="cls-3" d="M288.86,160.62c1.64.77,4.45-3.64,4.81-4.91C292,155.76,289,160.22,288.86,160.62Z" transform="translate(-35.47 -72.41)"/><path class="cls-3" d="M300.4,159c1-.1.74-.15,1.73-2.38.23-.51.52-1.09.71-1.59.35-.9.35-1,.14-1.56C301.79,153.47,299.88,157.88,300.4,159Z" transform="translate(-35.47 -72.41)"/><path class="cls-3" d="M280.27,159.91c1.06-.13.75-.3,2.42-1.75.79-.69,1.67-1.22,1.95-2.35-1.3-.22-3,1.49-4,2.55C279.44,159.8,280.24,159.78,280.27,159.91Z" transform="translate(-35.47 -72.41)"/><path class="cls-3" d="M317.62,206.88c.86.1.59.52,2.29-1.75,1.24-1.66,1.38-1.79,1-2.59-.8.14-1.26.9-1.93,1.76A4.67,4.67,0,0,0,317.62,206.88Z" transform="translate(-35.47 -72.41)"/><path class="cls-3" d="M270.16,189.31c1.42.26,4.66-1.24,5.09-2.9C274.36,186.45,270.5,188,270.16,189.31Z" transform="translate(-35.47 -72.41)"/><path class="cls-3" d="M304.85,189.49c1.59.12,2.84-3.8,2.55-4.46C306,184.79,304.74,188.85,304.85,189.49Z" transform="translate(-35.47 -72.41)"/><path class="cls-3" d="M258.71,233.64c1.23.05.56.12,1.5-.44,1.24-.74,2.37-.75,3.05-2.55C261.94,230.57,259.06,232.09,258.71,233.64Z" transform="translate(-35.47 -72.41)"/><path class="cls-3" d="M313.23,143.6a21.36,21.36,0,0,1,1.12-2.52c.65-.92.91-.59,1.41-2a3.26,3.26,0,0,0-3.11,3.23C312.58,143.53,312.64,143.17,313.23,143.6Z" transform="translate(-35.47 -72.41)"/><path class="cls-3" d="M260.78,236.39l.18,0,.66-.26c1.46-.83,2.46-1.25,2.42-2.16a1,1,0,0,0-1.2,0,7.15,7.15,0,0,0-.95.56c-.76.47-1.51.75-1.47,1.72Z" transform="translate(-35.47 -72.41)"/><path class="cls-3" d="M311,223.2c.89-.28.38-.59,1.54-1.65.2-.19.75-.6.85-.72.57-.67.34-.68.24-1.07C312.43,219.89,309.78,221.56,311,223.2Z" transform="translate(-35.47 -72.41)"/><path class="cls-3" d="M300.93,109.05c.61-.64.66-1.3,0-2.38a2.5,2.5,0,0,0-2-1.47c-.1,1.11.4,1.26.87,2C300.5,108.13,300,108.4,300.93,109.05Z" transform="translate(-35.47 -72.41)"/><path class="cls-3" d="M324.87,185.74c.95-.5.54-.78,1.1-2,.39-.83.72-.85,1.06-1.84C325.47,181.46,323.81,184.25,324.87,185.74Z" transform="translate(-35.47 -72.41)"/><path class="cls-3" d="M316,203.14c-2.29,2.78,1.65,2.9,2.44,1.07-.72-.4-.81-.21-1.75-.15C316.32,202.73,317,203.7,316,203.14Z" transform="translate(-35.47 -72.41)"/><path class="cls-3" d="M283.51,160.65c.59-.06,3.3-1.57,3.26-2.56-.93-.5-3,.83-3.31,1.93C283.34,160.5,283.44,160.37,283.51,160.65Z" transform="translate(-35.47 -72.41)"/><path class="cls-3" d="M308.39,141.38c.95-.27.74-.83,1.63-1.47.4-.29.68-.29,1-.56.93-1,.18-.68.14-.79C310.05,138.13,307.35,139.8,308.39,141.38Z" transform="translate(-35.47 -72.41)"/><path class="cls-3" d="M277.65,157.69c.8.17,2.74-1.43,2.74-2.57-.43-.39-.45-.42-.93-.12l-.8.79C277.72,156.75,277.37,156.83,277.65,157.69Z" transform="translate(-35.47 -72.41)"/><path class="cls-3" d="M297.45,170.58c-.53,0-.58-.33-1,.77-.6,1.48-.23,2.91,1.2,2.59,0-.85-.27-.72-.22-1.6S297.75,171.54,297.45,170.58Z" transform="translate(-35.47 -72.41)"/><path class="cls-3" d="M330.9,105.41c1.07.11.61-.14,1.54-.77s1.05-.09,1.57-1.41C332.39,102.94,330.9,103.56,330.9,105.41Z" transform="translate(-35.47 -72.41)"/><path class="cls-3" d="M287.15,222.53c1.13.25,2.66-2.25,2.75-2.57C288.78,219.55,287.17,220.63,287.15,222.53Z" transform="translate(-35.47 -72.41)"/><path class="cls-3" d="M290.63,117.67c.89-2.08-3.36-3.92-1.51-.84C290.18,118.59,290.63,117.67,290.63,117.67Z" transform="translate(-35.47 -72.41)"/><path class="cls-3" d="M316.22,143.26c1.28.05.82.16,1.6-1.08a5.07,5.07,0,0,0,1-1.77C317.32,140.25,316.34,141.9,316.22,143.26Z" transform="translate(-35.47 -72.41)"/><path class="cls-3" d="M291.8,192.58c1.09,0,1.05-.27,1.66-1.19.47-.72.67-.88.64-1.67C292.71,189.61,291.84,191.29,291.8,192.58Z" transform="translate(-35.47 -72.41)"/><path class="cls-3" d="M338.36,129.74c.72.43,2.81.93,3.37-.29-.54-.55-.93-.53-1.79-.56C338.78,128.85,338.71,128.81,338.36,129.74Z" transform="translate(-35.47 -72.41)"/><path class="cls-3" d="M317.08,155.32c1.3.16,2.07-1,2.32-2.51-1.1-.18-.83-.07-1.61.91C317.17,154.49,317,154.27,317.08,155.32Z" transform="translate(-35.47 -72.41)"/><path class="cls-3" d="M281.3,220.15a5.51,5.51,0,0,0,2.38-2.3C282.26,217.69,280.14,218.62,281.3,220.15Z" transform="translate(-35.47 -72.41)"/><path class="cls-3" d="M305.29,139.5c.92.22,2.33-1,2.57-2-.92-.54-1.12-.21-1.71.35A2.06,2.06,0,0,0,305.29,139.5Z" transform="translate(-35.47 -72.41)"/><path class="cls-3" d="M312.38,224.61c1,.09,1.16-.08,1.8-.76a1.72,1.72,0,0,0,.69-1.58C313.65,222.19,312.73,223.28,312.38,224.61Z" transform="translate(-35.47 -72.41)"/><path class="cls-3" d="M330.51,101.22c1.53.47,2.58-.39,2.78-2C332.26,99.13,330.88,100.31,330.51,101.22Z" transform="translate(-35.47 -72.41)"/><path class="cls-3" d="M310.57,155.75c1.12-.22,1.54-2.38,1.54-3A2.05,2.05,0,0,0,310.57,155.75Z" transform="translate(-35.47 -72.41)"/><path class="cls-3" d="M291.19,148.27s.22-2.38.2-2.46c-.87-.09-.33-.47-1.08.37S289.48,148.53,291.19,148.27Z" transform="translate(-35.47 -72.41)"/><path class="cls-3" d="M278.39,243.5c.9.47.57.21,1.54-.21.77-.33.93,0,1.07-.92A1.59,1.59,0,0,0,278.39,243.5Z" transform="translate(-35.47 -72.41)"/><path class="cls-3" d="M272.51,241.45a2.42,2.42,0,0,0,1.59-.35c.71-.31.82-.35,1-1.08A1.71,1.71,0,0,0,272.51,241.45Z" transform="translate(-35.47 -72.41)"/><path class="cls-3" d="M305.19,157.34c.8-.14.6,0,1.06-1a2.11,2.11,0,0,0,.32-1.41C305.21,154.67,304.58,156.39,305.19,157.34Z" transform="translate(-35.47 -72.41)"/><path class="cls-3" d="M295.25,114.92a1.81,1.81,0,0,0-.09-1.43c-.4-1-.38-.91-1.27-1.08C293.58,113.56,294.08,114.9,295.25,114.92Z" transform="translate(-35.47 -72.41)"/><path class="cls-3" d="M333.21,108.67c1,.66,1.94-.59,2.26-1.65a2,2,0,0,0-2.28,1.14C333.07,108.53,333.18,108.51,333.21,108.67Z" transform="translate(-35.47 -72.41)"/><path class="cls-3" d="M296.86,109.31s-.51-.07-.19,1.3c.16.74.19.84,1.05,1.08C298.15,110.78,298,109.26,296.86,109.31Z" transform="translate(-35.47 -72.41)"/><path class="cls-3" d="M302.35,235.6c-.72-.14-.9-.1-1.38.52-.36.46-.67.93-.22,1.3C301.52,238,302.52,236.33,302.35,235.6Z" transform="translate(-35.47 -72.41)"/><path class="cls-3" d="M286.8,174.74c1.32.07,1.44-1,1.22-1.89-.63-.13-.72-.48-1.19.51S286.75,174.61,286.8,174.74Z" transform="translate(-35.47 -72.41)"/><path class="cls-3" d="M279.86,204.82c1.31.07,1.44-1,1.22-1.89-.64-.13-.72-.48-1.2.51S279.81,204.69,279.86,204.82Z" transform="translate(-35.47 -72.41)"/><path class="cls-3" d="M310.71,239.09c.73.17.85.22,1.21-.53.45-.93.06-1.25,0-1.35-.62,0-.66-.31-1.11.7C310.48,238.67,310.57,238.5,310.71,239.09Z" transform="translate(-35.47 -72.41)"/><path class="cls-3" d="M331.69,134.65a2.28,2.28,0,0,0-2-.4c-.22.84-.39.95.8,1.18C331.4,135.62,331.4,135.41,331.69,134.65Z" transform="translate(-35.47 -72.41)"/><path class="cls-3" d="M318.69,164.7c-.95.64,1,1.37,1.77,1.47A1.25,1.25,0,0,0,318.69,164.7Z" transform="translate(-35.47 -72.41)"/><path class="cls-3" d="M329.77,97.37s0,.8,1.24.2c.55-.26.58-.5.58-1.1C330.58,96.28,329.59,96.36,329.77,97.37Z" transform="translate(-35.47 -72.41)"/><path class="cls-3" d="M288.54,233.21s0-1.11-1.19-.17c-.25.19-.65.72-.41,1.12C287.39,234.87,288.54,234,288.54,233.21Z" transform="translate(-35.47 -72.41)"/><path class="cls-3" d="M279.94,233.19c1.1.36,1.55-.21,1.63-1.2,0,0,.3-.42-.73-.24S279.94,233.19,279.94,233.19Z" transform="translate(-35.47 -72.41)"/><path class="cls-3" d="M287.27,119.88c.83-.54-.23-1.5-1.21-1.62C285.58,119.08,286.46,120.41,287.27,119.88Z" transform="translate(-35.47 -72.41)"/><path class="cls-3" d="M283.47,121.2c-.12.79.27,1.11,1,1.33a1.06,1.06,0,0,0-.7-1.87C283.44,121.05,283.65,120.08,283.47,121.2Z" transform="translate(-35.47 -72.41)"/><path class="cls-3" d="M315.26,187.94c.73.22,1,.41,1.28-.48.26-.73,0-.89-.66-1C315.19,187.06,315.25,186.94,315.26,187.94Z" transform="translate(-35.47 -72.41)"/><path class="cls-3" d="M309.06,205.39c.62.19.79.28,1.11-.27.65-1.09,0-1.05,0-1.06C309.32,203.65,308.84,204.49,309.06,205.39Z" transform="translate(-35.47 -72.41)"/><path class="cls-3" d="M338.41,122.4c.09.1-.26.34.7.54s.68-.1.86-.18c0-.57.39-.78-.59-1S338.62,121.86,338.41,122.4Z" transform="translate(-35.47 -72.41)"/><path class="cls-3" d="M283.63,143.45c-1.09-.35-1.28.49-1.25,1.37C283.48,145,283.93,144.75,283.63,143.45Z" transform="translate(-35.47 -72.41)"/><path class="cls-3" d="M285.94,146.7c.66.18.8.27,1.13-.32.5-.88,0-.93,0-1.06C286,145.25,285.71,145.72,285.94,146.7Z" transform="translate(-35.47 -72.41)"/><path class="cls-3" d="M313.1,167.31c-.83.55.34,1.21,1.21,1.27C314.8,167.44,313.79,166.84,313.1,167.31Z" transform="translate(-35.47 -72.41)"/><path class="cls-3" d="M263.82,236.67c1.16.24,1.77.19,1.75-1.08C264.58,235.24,264.16,235.69,263.82,236.67Z" transform="translate(-35.47 -72.41)"/><path class="cls-3" d="M308.75,169.23a2.11,2.11,0,0,0-1.6-.56c-.13.72-.27.92.53,1.25S308.51,169.88,308.75,169.23Z" transform="translate(-35.47 -72.41)"/><path class="cls-3" d="M306.61,237.59c1.1.37,1.15,0,1.36-1.25C306.86,236.07,306.4,236.44,306.61,237.59Z" transform="translate(-35.47 -72.41)"/><path class="cls-3" d="M321.4,141.55a1.32,1.32,0,0,0-.35,1.65C322.4,143.32,322.75,142.06,321.4,141.55Z" transform="translate(-35.47 -72.41)"/><path class="cls-3" d="M284.47,205.25c.7.15.91.4,1.11-.51s-.09-.78-.77-1C284.25,204.41,284.24,204.44,284.47,205.25Z" transform="translate(-35.47 -72.41)"/><path class="cls-3" d="M265.81,238c1.06.42,2,.06.87-1C265.75,237.2,266.13,236.89,265.81,238Z" transform="translate(-35.47 -72.41)"/><path class="cls-3" d="M303.72,224.72c.09.07-.16.29.75.28s.56-.77,1.77-1.89c.76-.7,2.26-1.61,2.45-2.76-1-.39-1.07-.12-1.72.49C305.79,221.94,303.6,223.27,303.72,224.72Z" transform="translate(-35.47 -72.41)"/><path class="cls-3" d="M303,204.6c-1.44-.08-1.73,2.45-.54,2.56A2.31,2.31,0,0,0,303,204.6Z" transform="translate(-35.47 -72.41)"/><path class="cls-3" d="M301.44,169.19c-.85.4-1.05.94-.82,2.06l1.18.16.25-.69A2,2,0,0,0,301.44,169.19Z" transform="translate(-35.47 -72.41)"/><path class="cls-3" d="M314.16,154.83c1,.59,1.6-.5,1.79-1.75-.8-.13-.93-.19-1.46.48C313.66,154.62,314.15,154.81,314.16,154.83Z" transform="translate(-35.47 -72.41)"/><path class="cls-3" d="M327.45,90.11s0,.79,1.31.12a1.32,1.32,0,0,0,.76-1.19A1.29,1.29,0,0,0,327.45,90.11Z" transform="translate(-35.47 -72.41)"/><path class="cls-3" d="M295.29,236.62c.94.64,1.57-.53,1.79-1.74A1.43,1.43,0,0,0,295.29,236.62Z" transform="translate(-35.47 -72.41)"/><path class="cls-3" d="M144.33,187.41c10.55,26.8,20.69,57.11,31.36,85.06,1.47,3.82,2.65,7.92,4.91,11.35.82,1.23,2.93.45,3-.93.13-3.45-1-6.78-2.05-10s-2.29-6.25-3.55-9.31c-7.84-19.16-23.26-61.87-31.7-77A1.07,1.07,0,0,0,144.33,187.41Z" transform="translate(-35.47 -72.41)"/><path class="cls-3" d="M157.27,248.59c1.11,2.41,4.93.65,3.73-1.7-.68-1.35-1.36-2.69-1.95-4.08-1-2.36-4.47-.72-3.57,1.63C156,245.86,156.64,247.22,157.27,248.59Z" transform="translate(-35.47 -72.41)"/><path class="cls-3" d="M142.37,212.32a36.61,36.61,0,0,0,2.49,6.06c.92,2.18,1.77,4.4,2.66,6.59a55.76,55.76,0,0,1,2.25,6.44c.56,2,1,5.12,2.92,6.4a1.1,1.1,0,0,0,1.33-.06c1.69-1.73,1.22-4.74.59-6.83a60.08,60.08,0,0,0-2.69-7.21,67,67,0,0,0-3.49-6.59c-.6-1-1.21-2-1.82-3.05a18.76,18.76,0,0,0-1.84-2.85C143.9,210.25,142.05,210.93,142.37,212.32Z" transform="translate(-35.47 -72.41)"/><path class="cls-3" d="M332.94,216.51c-.45,2.61,3.69,3.33,4,.72.21-1.5.4-3,.72-4.46.52-2.51-3.28-3.14-3.88-.7C333.45,213.53,333.2,215,332.94,216.51Z" transform="translate(-35.47 -72.41)"/><path class="cls-3" d="M341.3,178.19a37.56,37.56,0,0,0-1.4,6.41c-.48,2.31-1,4.62-1.55,6.93a56.09,56.09,0,0,1-1.81,6.57c-.71,2-2.08,4.79-1.24,6.93a1.1,1.1,0,0,0,1.13.71c2.37-.47,3.7-3.21,4.37-5.28a61.84,61.84,0,0,0,1.88-7.47,65.79,65.79,0,0,0,.88-7.4l.24-3.54a19.36,19.36,0,0,0,.1-3.4A1.38,1.38,0,0,0,341.3,178.19Z" transform="translate(-35.47 -72.41)"/><path class="cls-3" d="M261.07,184.58c-4.26,20.68-10.18,43.35-14.83,64.79-.63,2.93-1.55,5.92-1.54,8.94a1.25,1.25,0,0,0,2.21.62,22,22,0,0,0,2.75-7c.65-2.35,1.1-4.76,1.56-7.15,2.86-14.9,10.51-47.3,11.41-60A.79.79,0,0,0,261.07,184.58Z" transform="translate(-35.47 -72.41)"/><text class="cls-14" transform="translate(122.71 287.24) rotate(-5.49)">D</text><text class="cls-14" transform="matrix(0.95, -0.32, 0.32, 0.95, 159.04, 282.45)">H</text><text class="cls-14" transform="translate(189.11 272.17) rotate(-21.58)">A</text><text class="cls-14" transform="translate(218.5 260.41) rotate(-21.32)">M</text><text class="cls-14" transform="translate(253.8 246.65) rotate(-19.43)">K</text><text class="cls-14" transform="matrix(0.96, -0.29, 0.29, 0.96, 281.48, 236.84)">H</text><text class="cls-14" transform="translate(308.76 225.05) rotate(5.26)">A</text></svg>